<?xml version="1.0" encoding="UTF-8"?>
<svg id="Ebene_1" xmlns="http://www.w3.org/2000/svg" version="1.1" viewBox="0 0 836 519.8">
  <!-- Generator: Adobe Illustrator 29.1.0, SVG Export Plug-In . SVG Version: 2.1.0 Build 142)  -->
  <defs>
    <style>
      .st0 {
        fill: #c87e69;
      }

      .st1 {
        fill: #1d2130;
      }

      .st2 {
        display: none;
      }
    </style>
  </defs>
  <g id="Background" class="st2">
    <rect class="st1" y="-235.8" width="1200" height="800"/>
  </g>
  <g id="Rounded_Lines">
    <g>
      <path class="st0" d="M649,564.3c.3-.6.4-1.2.8-1.7,12.5-18.5,25-37,37.5-55.4,1.7-2.6,4.1-4,7.2-3.4,4.4.7,6.8,5.4,4.9,9.5-.3.7-.7,1.2-1.1,1.8-7,10.3-13.9,20.6-21,30.9-1.2,1.7-2,3.6-1.5,5.8.7,2.6,2.3,4.4,4.9,5,2.5.7,4.7,0,6.5-2,.5-.6.9-1.2,1.4-1.9,11.5-16.9,22.9-33.8,34.4-50.7,1.4-2,3-3.3,5.5-3.4,2.7-.1,4.8.9,6.2,3.3,1.4,2.4,1.4,4.8-.2,7.1-4.2,6.2-8.4,12.4-12.6,18.6-7.9,11.6-15.8,23.3-23.7,34.9-.4.5-.6,1.1-.9,1.7h-48.4Z"/>
      <path class="st0" d="M713.6,564.3c.3-.6.5-1.2.8-1.7,13.6-20,27.2-40,40.7-60,1-1.5,2.2-2.8,4.1-3.3,2.8-.7,5.5.1,7.3,2.4,1.7,2.3,1.8,5.1.3,7.6-1.1,1.7-2.3,3.3-3.3,5-10.7,15.7-21.3,31.4-31.9,47-.6.9-1.6,1.7-1.2,3h-16.6,0Z"/>
      <path class="st0" d="M777.9,564.3c7.6-11.2,15.1-22.4,22.7-33.5,5.8-8.6,11.7-17.2,17.5-25.8,1.5-2.1,3.2-3.5,5.9-3.6,2.7,0,4.8,1.1,6,3.5,1.2,2.3,1.2,4.5-.4,6.8-9.5,14-19,28.1-28.6,42.1-2,2.9-4,5.9-6,8.8-.4.5-.6,1.1-.9,1.7h-16.3Z"/>
      <path class="st0" d="M745.8,564.3c.3-.6.5-1.2.9-1.7,7.4-11,14.8-21.9,22.2-32.8,1.2-1.7,2.3-3.2,4.4-3.8,2.8-.9,5.7,0,7.5,2.2,1.7,2.3,1.9,5.3.3,7.8-4.4,6.6-8.9,13.1-13.4,19.7-1.6,2.4-3.3,4.8-4.9,7.2-.3.4-.5,1-.8,1.5h-16.3Z"/>
      <path class="st0" d="M398.3,220.7c0-1.3.7-2.6,1.5-3.8,6.5-9.5,12.9-19,19.3-28.5,1.7-2.6,3.6-5.2,5.3-7.8,1.6-2.3,3.9-3.3,6.7-2.8,2.8.5,4.6,2.3,5.3,4.9.5,2,0,3.9-1.2,5.7-2,3-4.1,6-6.1,9-1,1.5-1.7,3.2-1.3,5.1.5,2.8,2.2,4.7,4.9,5.4,2.8.7,5.2-.1,7-2.5,1.6-2.2,3-4.5,4.6-6.7,1.4-2,3.3-3.1,5.7-3,2.5,0,4.5,1.1,5.7,3.3,1.3,2.3,1.4,4.6,0,6.8-1.9,2.9-3.8,5.8-5.8,8.6-10.5,15.4-20.9,30.9-31.4,46.2-1,1.5-2.2,2.9-4,3.5-2.8.9-5.6,0-7.3-2.1-1.7-2.1-2-5.2-.6-7.6.9-1.5,1.8-2.8,2.8-4.2,5.4-8,10.8-15.9,16.2-23.9,1.2-1.7,2.1-3.6,1.6-5.8-.7-2.8-2.3-4.6-5.1-5.2-2.8-.7-5.2.3-6.8,2.5-1.7,2.3-3.2,4.6-4.8,7-1.2,1.8-3,2.8-5.2,3-4.1.2-7.2-2.8-7.2-7.1v.2Z"/>
      <path class="st0" d="M788.5,519.6c-5.2-.3-8.3-5.7-5.8-10.2.3-.6.7-1.1,1.1-1.6,6-8.9,12.1-17.9,18.2-26.7,1.5-2.2,2-4.4,1-6.8-2-4.9-8.3-5.7-11.5-1.5-1.6,2.1-3,4.4-4.5,6.5-.6.8-1.2,1.7-2.1,2.3-2.4,1.9-5.7,1.7-8.1-.1-2.3-1.8-3.1-4.9-2-7.7.3-.7.7-1.2,1-1.8,8.1-11.9,16.1-23.8,24.2-35.7.9-1.4,2-2.7,3.8-3.2,2.8-.9,5.7,0,7.5,2.3,1.7,2.3,1.9,5.2.2,7.8-2,3-4,5.9-6,8.9-.4.7-.8,1.3-1.2,2-1.7,3.2,0,6.5,2.3,8.1,3,2.1,7,1.4,9.1-1.7,1.6-2.3,3-4.6,4.7-6.9,2.7-3.7,8.1-3.8,10.8-.3,1.7,2.3,1.9,5.3.3,7.8-1.4,2.1-2.8,4.2-4.2,6.2-10.9,16-21.8,32.2-32.7,48.2-.9,1.4-1.8,2.7-3.4,3.3-.9.4-2,.6-2.9.9h0Z"/>
      <path class="st0" d="M769.2,439.8c2.4.1,4.4,1.2,5.6,3.5,1.2,2.3,1.2,4.6-.3,6.8-3.2,4.8-6.5,9.5-9.7,14.2-5.2,7.6-10.4,15.2-15.5,22.9-1,1.5-2.2,2.7-4,3.1-2.7.7-5.4,0-7.1-2.3-1.7-2.3-1.9-4.7-.7-7.3.2-.4.4-.8.7-1.2,8.3-12.2,16.6-24.3,24.8-36.5,1.5-2.1,3.3-3.3,6.2-3.4h0Z"/>
      <path class="st0" d="M368.1,235.6c-5.7,0-8.9-5.3-6.6-9.8.2-.4.5-.9.8-1.3,8.2-12.1,16.4-24.2,24.6-36.4,1.1-1.6,2.4-2.9,4.4-3.3,2.7-.6,5,.2,6.8,2.3,1.7,2.2,2,4.6.7,7-.2.5-.6,1-.9,1.5-8.2,12.1-16.4,24.2-24.6,36.4-1.5,2.1-3.2,3.5-5.2,3.5h0Z"/>
      <path class="st0" d="M181.5,128c-2.2,0-4.2-1.2-5.4-3.5-1.2-2.3-1.2-4.6.3-6.8,5.4-8,10.8-15.9,16.2-23.9.7-1.1,1.6-2.2,2.3-3.3,1.7-2.9,6-3.7,8.9-2,3,1.8,4.1,5.6,2.5,8.8-.1.4-.4.7-.6,1-6,8.9-12,17.7-18,26.6-1.4,2-3.3,3.1-6.1,3h0Z"/>
      <path class="st0" d="M557.9,383.1c-5,0-8.1-5.4-5.7-9.9.2-.4.5-.8.7-1.2,5.9-8.7,11.8-17.4,17.7-26.1,1.2-1.7,2.6-3,4.8-3.2,2.6-.3,4.7.5,6.2,2.6,1.6,2.1,1.8,4.4.7,6.8-.2.5-.6,1-.9,1.5-5.9,8.6-11.8,17.3-17.6,25.9-1.5,2.2-3.3,3.6-6,3.6h0Z"/>
      <path class="st0" d="M465.4,332.4c0,1.2-.3,2.5-1.1,3.6-2.6,3.9-5.2,7.8-7.9,11.7-2.2,3-6.2,3.8-9.2,1.8-3-2-3.9-6-1.9-9.2,2.6-4,5.3-7.9,8.1-11.8,1.7-2.5,4.7-3.4,7.6-2.5,2.8.9,4.6,3.4,4.6,6.6h0Z"/>
      <path class="st0" d="M710.3,383.4c2.5.1,4.4,1.2,5.7,3.4,1.2,2.3,1.4,4.6,0,6.8-2.7,4.1-5.4,8-8.1,12.1-1.7,2.7-6,3.8-9.1,1.8-3-2-3.9-5.8-2.2-9,.6-1,1.3-2,1.9-2.9,2-2.9,4-5.9,6-8.8,1.4-2,3.3-3.2,5.9-3.3h0Z"/>
      <path class="st0" d="M340.9,135.9c-.2.6-.5,1.8-1.2,2.8-2.6,4-5.3,7.9-8,11.8-1.7,2.5-4.4,3.3-7.1,2.7-2.8-.7-4.6-2.8-5-5.7-.2-1.6.2-3.1,1.1-4.4,2.6-3.9,5.2-7.8,7.9-11.7,1.9-2.6,4.8-3.6,7.6-2.6,2.8.9,4.6,3.6,4.6,7.1h0Z"/>
      <path class="st0" d="M75.5,95.4c-5.9,0-9-5.5-6.4-10.1.8-1.3,1.7-2.6,2.5-3.8,1.8-2.7,3.6-5.4,5.5-8.1,2.3-3.1,6.4-3.8,9.4-1.7,2.9,2.1,3.6,5.9,1.7,9.1-1.1,1.8-2.4,3.6-3.6,5.3-1.5,2.1-2.9,4.3-4.4,6.4-1.3,2-3.1,3-4.9,3h0Z"/>
      <path class="st0" d="M199.4,177c0,1.2-.4,2.5-1.2,3.6-4.9,7.1-9.7,14.3-14.5,21.4-1.8,2.6-4.8,3.6-7.6,2.7s-4.7-3.6-4.5-6.7c0-1,.4-2.2.9-3,4.9-7.5,10-14.9,15-22.3,1.6-2.3,4.7-3.2,7.4-2.3,2.8.9,4.5,3.5,4.4,6.5h0Z"/>
      <path class="st0" d="M781.5,373.7c-2.6,0-4.5,1.2-6,3.3-6.2,9.2-12.4,18.4-18.7,27.6-5.3,7.8-10.7,15.6-15.9,23.6-2.3,3.4-8.1,4.4-11,.2-1.7-2.3-1.7-5.2,0-7.8,2.9-4.4,5.9-8.6,8.8-13,.4-.5.7-1.1,1-1.7,1.3-2.5,1.1-5-.7-7.3-1.8-2.2-4.1-2.9-7-2.3-1.8.4-3,1.7-4,3.1-2.4,3.5-4.7,7-7,10.4-27.4,40.5-54.9,80.9-82.3,121.5-.5.7-1,1.5-1.7,2.1-2,2-4.5,2.5-7.1,1.5s-4-3.1-4.2-6c-.1-2,.8-3.6,1.9-5.2,16.3-24.1,32.7-48.1,49-72.2,4.2-6.2,8.5-12.5,12.7-18.7,1.6-2.3,1.5-4.8,0-7.1-1.5-2.4-3.6-3.4-6.4-3.1-2.4.2-4.1,1.7-5.4,3.7-18.4,27.2-36.8,54.2-55.2,81.4-.4.7-.9,1.3-1.4,1.9-2.3,2.7-6.1,3.1-8.9,1.1-2.8-2-3.6-5.6-1.9-8.6.3-.6.7-1.1,1-1.6,14.6-21.5,29.2-43.1,43.8-64.5.4-.6.8-1.2,1.2-1.8,2.2-4.5-.9-9.6-5.9-9.7-2.7,0-4.6,1.3-6,3.6-15.4,22.7-30.8,45.4-46.2,68.1-2.9,4.4-5.8,8.7-8.8,13-1.7,2.4-4.1,3.3-7,2.6-2.8-.7-4.5-2.5-5-5.3-.4-2.1.2-3.9,1.5-5.7,4.6-6.8,9.3-13.6,13.9-20.5.4-.6.8-1.2,1.2-1.8,1.3-2.5.9-5.4-.8-7.4-1.7-2-4.6-2.8-7.2-2-1.7.6-2.9,1.8-3.9,3.3-5.8,8.6-11.6,17.1-17.4,25.6-4.7,7-9.5,13.9-14.1,20.8-1.3,2-4.9,3.5-7.6,2.5-4.2-1.5-6-6.2-3.5-10.1,3.8-5.7,7.6-11.4,11.5-17.1,13.4-19.8,26.9-39.6,40.3-59.5,3-4.4,6-8.9,9-13.3,1.7-2.5,4.9-3.4,7.7-2.4,2.8,1,4.5,3.6,4.4,6.6,0,1.4-.6,2.6-1.3,3.8-1.3,1.9-2.7,3.8-3.8,5.8-1.7,3-1.4,5,.5,7.5,1.7,2.2,4.6,3,7.3,2.2,1.8-.6,3-2,4-3.5,8.3-12.3,16.7-24.7,25.1-37,1.5-2.2,3-4.4,4.4-6.6,1.6-2.5,1.4-5.4-.3-7.6-1.7-2.2-4.5-3.1-7.3-2.3-1.7.5-2.9,1.7-3.8,3-2.3,3.4-4.6,6.9-7,10.2-2.7,3.8-8.1,3.8-10.8.3-1.5-2-1.9-5.5.1-8.5,12.1-17.7,24.2-35.5,36.2-53.3,2.3-3.3,4.5-6.6,6.7-9.9,1.7-2.5,1.2-5.9-.8-8.1-2.1-2.3-5.2-2.7-8-1.3-1.5.8-2.4,2.1-3.3,3.4-19.5,28.7-39,57.5-58.4,86.2-.4.7-.9,1.3-1.4,1.9-2.3,2.5-6,3-8.8,1.1-2.3-1.5-4-5.1-2.1-8.6.4-.7.7-1.2,1.2-1.8,5.6-8.2,11.2-16.5,16.7-24.7.4-.6.8-1.2,1.2-1.8,1.4-2.5,1.1-5.5-.7-7.6-1.8-2.2-4.6-2.9-7.3-2-1.9.6-2.9,2-4,3.5-16.6,24.4-33.1,48.8-49.7,73.3-3.8,5.6-7.6,11.3-11.4,16.8-1.6,2.4-3.9,3.3-6.8,2.8-2.8-.5-4.5-2.2-5.2-4.9-.6-2.3,0-4.3,1.4-6.2,9.6-14.1,19.2-28.2,28.7-42.3.8-1.2,1.7-2.3,2.3-3.6,1.4-2.4,1.3-4.9-.3-7.1-1.6-2.3-3.9-3.2-6.8-2.8-2.2.4-3.5,1.7-4.6,3.4-7.6,11.1-15,22.2-22.6,33.3-.4.7-.9,1.3-1.4,1.9-1.9,2-4.7,2.7-7.3,1.7-2.5-.9-4.1-3.3-4.3-6.1,0-1.8.7-3.2,1.6-4.6,14.7-21.6,29.3-43.1,43.9-64.7,3.2-4.7,6.5-9.5,9.7-14.3,1.5-2.2,1.4-4.5.1-6.8-1.2-2.2-3.2-3.3-5.7-3.3s-4.8,1.5-6.3,3.8c-14,20.8-28.1,41.5-42.1,62.1-4.7,7-9.5,14-14.2,21-.9,1.5-2,2.7-3.7,3.2-2.8.9-5.6,0-7.3-2-1.8-2.3-2-5.2-.5-7.8.8-1.3,1.7-2.5,2.6-3.8,1.6-2.3,3.3-4.6,4.7-7,2.3-3.8.8-8.3-3.2-9.9-2.3-.9-6-.4-8.1,2.8-7.8,11.8-15.8,23.4-23.8,35.1-4.6,6.9-9.4,13.8-14,20.7-1.6,2.4-3.9,3.3-6.8,2.8-2.8-.4-4.5-2.2-5.2-4.8-.7-2.3,0-4.3,1.4-6.2,19-28,38-56,56.9-83.9.4-.5.7-1.1,1.2-1.6,2.3-2.7,6.3-3.1,9.1-1.1,2.8,2.1,3.6,6,1.7,9-.9,1.4-1.8,2.7-2.7,4.1-2.5,4.2.4,9.7,5.4,9.9,3,.1,5-1.5,6.7-3.8,22.6-33.3,45.2-66.6,67.8-100,.4-.6.8-1.2,1.2-1.8,1.3-2.5,1-5.5-.8-7.6s-4.5-2.8-7.2-2c-1.8.6-2.9,1.8-3.8,3.3-11.3,16.7-22.7,33.5-34,50.2-3.6,5.4-7.3,10.8-11,16.2-1.5,2.3-3.8,3-6.4,2.7s-4.4-1.8-5.2-4.4c-.8-2.3-.4-4.4.9-6.5,2.5-3.7,5-7.3,7.5-11,.4-.6.8-1.2,1.2-1.8,1.2-2.3,1.2-4.6-.4-6.8-1.5-2.2-3.6-3.1-6.3-2.9-2.5.2-4,1.8-5.3,3.8-14.7,21.8-29.5,43.6-44.4,65.3-2.9,4.4-5.8,8.6-8.8,13-1.7,2.5-4.1,3.6-7,3-4.6-.9-6.8-6.2-4.2-10.2,2.5-3.8,5.1-7.5,7.6-11.3,1.5-2.2,3-4.4,4.4-6.6,2.4-3.8.5-8.7-3.8-10-2.8-.8-5.7.2-7.5,2.7-2,2.8-3.8,5.7-5.8,8.5-.6.8-1.2,1.6-1.9,2.2-2.1,1.9-5.3,2.1-7.7.6-2.5-1.5-3.8-4.6-2.9-7.3.4-1.1.9-2.1,1.6-3,19.2-28.2,38.3-56.5,57.5-84.7,1.1-1.7,2.3-3.3,3.3-5,2.7-4.4,0-9.8-5.1-10.2-2.6-.2-4.7.8-6.2,3-5.2,7.7-10.5,15.4-15.6,23.1-4.2,6.2-8.4,12.3-12.6,18.6-1.6,2.5-5.1,3.7-7.8,2.8-4.2-1.5-5.9-6.3-3.4-10.2,2-3,4-5.9,6-8.8,6.6-9.7,13.1-19.5,19.8-29.1,2.7-3.8.7-9.6-4.4-10.4-3.1-.5-5.3,1-7,3.5-7.3,10.7-14.5,21.3-21.8,32-7.8,11.5-15.5,22.9-23.4,34.4-1.7,2.5-4.6,3.5-7.5,2.6-2.8-.9-4.5-3.3-4.6-6.2,0-1.7.6-3.1,1.5-4.5,6.2-9,12.3-18.1,18.4-27.1.7-1.1,1.4-2.2,1.5-3.6.1-2.9-1.5-5.6-4.1-6.7-2.7-1.1-5.6-.5-7.6,1.7-.7.8-1.4,1.7-2,2.6-8.6,12.6-17.2,25.3-25.8,38-.4.6-.8,1.2-1.2,1.7-2.3,2.8-6,3.3-8.9,1.5-2.3-1.5-4.1-5.1-2.2-8.7.3-.6.7-1.1,1-1.7,8.9-13.2,17.9-26.4,26.9-39.6,2.8-4.1,5.5-8.1,8.3-12.2,2.2-3.3,1.4-7.3-1.7-9.4-3.4-2.3-7.9-.8-9.4,1.9-.4.7-.9,1.3-1.3,2-18.4,27.1-36.7,54.2-55.1,81.2-.4.6-.8,1.2-1.2,1.7-1.7,2-4.9,2.6-7.5,1.5-2.5-1.1-4.1-3.6-4-6.3,0-2.1,1.2-3.6,2.3-5.2,14.8-21.9,29.6-43.7,44.4-65.5.6-.9,1.3-1.8,1.8-2.8,1.3-2.5,1-5.3-.8-7.4-1.7-2-4.6-2.8-7.2-2-1.7.6-2.9,1.8-3.9,3.3-11.3,16.7-22.7,33.5-34,50.2-.4.7-.9,1.4-1.5,2-1.8,2.1-4.8,3-7.3,2-2.7-.9-4.3-3.3-4.4-6.2,0-1.7.6-3,1.5-4.3,4.8-7,9.5-14,14.2-21,2.5-3.8,5.2-7.6,7.7-11.4,2.8-4.4-.4-9.9-5.5-10.1-2.8,0-4.7,1.3-6.2,3.6-10.6,15.6-21.2,31.1-31.7,46.8-7.9,11.6-15.8,23.3-23.7,34.9-.4.5-.7,1.1-1.2,1.5-1.7,2-4,2.6-6.5,2-2.5-.6-4-2.2-4.8-4.6-.7-2.3,0-4.1,1.2-6,6.1-8.9,12.1-17.9,18.2-26.7,18.2-26.8,36.3-53.5,54.5-80.3,3.8-5.7,7.7-11.3,11.5-17,1-1.5,2.2-2.7,4-3.2,2.8-.7,5.2,0,7.1,2.3,1.8,2.2,1.9,5.1.4,7.6-.5.9-1.2,1.7-1.7,2.6-1.9,2.8-3.9,5.7-5.7,8.5-1.7,2.6-1.3,6,.8,8.2,2.2,2.3,5.6,2.8,8.3,1.1,1-.7,1.8-1.6,2.5-2.6,17.9-26.3,35.6-52.6,53.5-78.8,4.4-6.5,8.8-12.9,13.1-19.4,1.7-2.5,1.4-5.9-.6-8.1-2.1-2.3-5.3-2.9-8.1-1.5-1.3.7-2.2,1.7-3,2.9-9.6,14.2-19.2,28.3-28.8,42.5-1.9,2.8-3.7,5.6-5.7,8.3-2.1,3-5.5,3.8-8.6,2.3-3.6-1.8-4.8-6.2-2.4-9.7,2.9-4.4,5.9-8.6,8.8-13,.4-.5.7-1.1,1-1.6,1.3-2.5,1-5.4-.7-7.5-1.7-2.1-4.4-2.9-7.2-2.1-2,.6-3.1,2.1-4.2,3.8-29.7,43.8-59.4,87.6-89.1,131.4-.4.5-.7,1.1-1.2,1.6-1.8,2-4.1,2.8-6.7,2.1-2.5-.6-4.2-2.3-4.9-4.8-.6-2.4.1-4.5,1.5-6.5,20-29.4,39.9-58.8,59.9-88.3.7-1,1.4-2,2-3,1.5-2.5,1.4-4.9-.3-7.3-1.6-2.3-3.8-3.1-6.6-2.7-2.3.4-3.7,1.9-4.9,3.7-18.4,27.2-36.9,54.4-55.3,81.5-.4.5-.7,1.1-1.2,1.6-3.3,3.8-9.4,2.9-11.3-1.7-1-2.5-.4-4.7,1-6.9,11.7-17.1,23.4-34.3,35-51.5,3.3-4.9,6.6-9.7,9.9-14.6,1.7-2.6,1.4-6-.7-8.2-2.1-2.3-5.4-2.8-8.1-1.2-1.4.7-2.2,2-3,3.2-18,26.6-36,53.1-54,79.6-.5.7-1.1,1.5-1.7,2.1-3.6,3.3-9.4,1.6-10.7-3-.7-2.3,0-4.3,1.2-6.2,4.6-6.8,9.2-13.6,13.8-20.3.4-.7.9-1.2,1.2-2,2.3-4.2-.2-9.2-4.9-9.8-2.7-.4-4.9.6-6.5,3-5,7.4-10,14.7-15,22.1-7.8,11.6-15.8,23.2-23.6,34.8-.4.5-.7,1.1-1.1,1.6-3.3,3.9-9.6,2.9-11.4-1.8-.9-2.3-.5-4.4.9-6.4,6-8.7,11.9-17.5,17.9-26.3,13.1-19.3,26.1-38.6,39.2-57.9,3.6-5.2,7.1-10.5,10.7-15.7,1.2-1.9,2.9-3.1,5.2-3.3,2.7-.3,4.9.7,6.3,3,1.5,2.3,1.6,4.8.1,7.1-1.4,2.2-2.9,4.3-4.3,6.5-2.6,4.3.5,9.8,5.5,9.9,2.7,0,4.6-1.2,6.1-3.4,9.8-14.4,19.6-29,29.4-43.4.2-.4.5-.7.7-1.2,1.5-3.2.4-7-2.6-8.8-3-1.8-7.2-.7-8.8,1.9-.7,1.2-1.5,2.3-2.3,3.3-1.7,2.5-3.3,5.1-5.2,7.6-1.6,2.3-3.9,3.2-6.6,2.7-2.8-.5-4.6-2.3-5.3-5-.6-2.2,0-4.1,1.4-6,9.8-14.4,19.6-28.8,29.3-43.3,4.3-6.4,8.6-12.7,12.9-19.1.9-1.4,1.7-2.8,1.6-4.5,0-2.9-2-5.4-4.6-6.2-2.8-.9-5.6,0-7.4,2.4-.5.7-.9,1.4-1.5,2.1-19.4,28.6-38.8,57.1-58.2,85.7-.4.7-.9,1.3-1.4,1.9-3.6,3.7-9.1,2.6-11-1.8-1-2.4-.7-4.6.8-6.8,5.7-8.4,11.5-16.8,17.2-25.3.4-.7.9-1.4,1.4-2.1,1.3-2.3.9-5.6-.9-7.6-2-2.2-5-2.8-7.6-1.7-1.7.7-2.8,2.2-3.8,3.7-20,29.5-40,59-60,88.4-.6.9-1.2,1.7-1.9,2.4-2,2-5.2,2.3-7.7.9-2.6-1.5-3.9-4.4-3.1-7.3.4-1.2.9-2.4,1.7-3.4,9.9-14.7,19.8-29.3,29.8-43.9.4-.6.8-1.2,1.2-1.8,1.3-2.5.9-5.4-.8-7.4-1.7-2.1-4.5-2.8-7.2-2-1.7.5-2.8,1.6-3.6,3-7.6,11.1-15,22.2-22.6,33.3-.4.7-.9,1.3-1.4,1.9-1.8,2.2-5,3-7.6,2-2.8-1.1-4.3-3.6-4.2-6.5,0-1.8.9-3.2,1.8-4.6,17.1-25.1,34-50.2,51-75.3.8-1.2,1.7-2.3,2.3-3.6,1.4-2.5,1.3-5-.4-7.3-1.7-2.3-4.1-3.1-6.8-2.5-2.3.5-3.6,2.1-4.8,3.9-18.2,26.9-36.4,53.7-54.7,80.6-.7,1.1-1.4,2.2-2.2,3.2-2.3,2.9-6.2,3.6-9.1,1.6-2.7-1.8-4.1-6.1-1.7-9.2.9-1.2,1.6-2.3,2.4-3.5,1.7-2.5,3.4-4.9,4.9-7.4,1.4-2.3,1.4-4.6,0-7-1.4-2.3-3.4-3.3-6-3.2-2.5,0-4.3,1.5-5.7,3.5-4.6,6.8-9.1,13.4-13.7,20.2-7.8,11.5-15.6,22.9-23.4,34.4-.4.6-.8,1.2-1.2,1.7-1.7,2-3.8,2.5-6.3,2-2.5-.6-4.2-2.2-4.9-4.6-.7-2.3,0-4.3,1.3-6.2,19-28,38-56,57-84.1.4-.6.8-1.2,1.2-1.7,1.9-2.1,4.6-2.8,7.2-2,2.5.9,4.3,3.2,4.4,6,0,1.5-.4,2.8-1.2,4-.8,1.2-1.7,2.5-2.5,3.7-1.5,2.5-1.2,5.7.7,7.9,2,2.3,4.9,2.8,7.8,1.7,1.6-.7,2.5-1.9,3.5-3.2,22.7-33.4,45.3-66.8,67.9-100.1.4-.5.7-1.1,1-1.6,1.4-2.6.9-5.8-1-7.9-2.1-2.2-5.1-2.7-7.8-1.4-1.6.7-2.5,2.1-3.5,3.6-14.6,21.6-29.3,43.1-43.9,64.7-.5.7-1.1,1.5-1.7,2.1-3.4,3.2-9.1,1.7-10.7-2.6-.9-2.3-.4-4.4,1-6.4,2-2.9,3.9-5.7,5.9-8.6.9-1.3,1.8-2.5,2.6-3.8,1.5-2.5,1.2-5.4-.5-7.6-1.8-2.3-4.5-3-7.3-2.2-1.8.5-2.9,1.8-3.8,3.3-15.3,22.6-30.6,45.2-46,67.8-2.4,3.6-4.9,7.1-7.3,10.7-1.3,1.9-3,3-5.3,3.1-2.6.1-4.7-.9-6.1-3-1.5-2.3-1.5-4.6,0-7,.9-1.5,1.9-2.9,2.9-4.4,3-4.4,6-8.8,8.9-13.1,1.6-2.3,2-4.7.7-7.3-2.4-4.5-8.3-4.8-11.4-.6-1.7,2.3-3.2,4.7-4.8,7-.6.9-1.2,1.9-1.9,2.7-1.9,2.3-4.3,3-7.1,2.3-2.8-.8-4.3-2.8-4.7-5.5-.4-2.2.7-3.8,1.8-5.5,20-29.5,40.1-59.1,60.1-88.6.3-.5.7-.9.9-1.5,2.5-4.5-.7-9.9-5.7-10-2.7,0-4.6,1.3-6.1,3.5-9,13.4-18.1,26.7-27.2,40.1-.6.9-1.2,1.8-2,2.5-3.4,3.3-9.2,1.7-10.7-2.8-.8-2.3-.2-4.4,1.2-6.4,4.8-7,9.6-14.1,14.4-21.1.5-.8,1.1-1.6,1.6-2.4,1.5-2.5,1.2-5.6-.7-7.8-1.8-2.1-4.6-2.8-7.4-2-1.7.6-2.7,1.9-3.6,3.3-14.2,21-28.5,42-42.7,62.9-4,5.9-8,11.8-12,17.6-.7.1-.7,1-1.7.9v473.1h633.1c.1-.5.2-1.1.5-1.6,1.5-2.4,3.2-4.7,4.8-7,22.1-32.6,44.2-65.1,66.3-97.7.4-.5.7-1.1,1.2-1.5,2.4-2.5,6.3-2.8,9-.7,2.8,2.3,3.3,6.5,1.5,8.9-.9,1.2-1.7,2.5-2.6,3.8-1.6,2.3-3.2,4.6-4.8,7-1.5,2.3-1.5,4.6-.1,7,1.3,2.3,3.4,3.5,6.1,3.3,2.6,0,4.4-1.5,5.8-3.6,21.9-32.4,43.9-64.8,65.8-97.1.3-.5.7-.9.9-1.5,2.4-4.5-.7-9.8-5.8-9.9h0ZM548.5,450.1c4.9-7.3,9.9-14.7,14.9-21.9,3-4.4,9.1-3.6,11.3.4,1.4,2.5,1.2,4.9-.4,7.3-1.7,2.5-3.4,5-5.1,7.6-3.1,4.6-6.3,9.3-9.4,13.9-1.3,2-3.2,2.9-5.8,3-2.4,0-4.4-1.2-5.6-3.5-1.2-2.2-1.2-4.5.1-6.6h0ZM17,111.8c-2.8.7-5.2,0-7-2.2s-2-4.6-.8-7.3c.1-.4.4-.7.6-1,9.4-13.9,18.9-27.9,28.4-41.8,1.3-1.9,3-3.1,5.1-3,4.9-.2,8.3,4.4,6.8,8.7-.3.9-.8,1.7-1.2,2.4-9.2,13.6-18.4,27.2-27.6,40.7-1.1,1.6-2.3,3-4.2,3.5h0ZM37.3,174.1c-2.4,0-4.4-1.2-5.6-3.5-1.2-2.2-1.2-4.5.1-6.6,4.9-7.3,9.9-14.7,14.9-21.9,3-4.4,9.1-3.6,11.3.4,1.4,2.5,1.2,4.9-.4,7.3-1.7,2.5-3.4,5-5.1,7.6-3.1,4.6-6.3,9.3-9.4,13.9-1.3,2-3.2,2.9-5.8,3h0ZM231.7,274.1c-.2.4-.4.8-.7,1.2-3,4.4-6,8.9-9,13.3-1.4,2-3.3,3.2-6.2,3.3-2.1,0-4.1-1.2-5.3-3.3-1.2-2.2-1.5-4.5,0-6.6,3.3-4.9,6.6-9.9,10-14.7,1.9-2.8,5.7-3.3,8.6-1.7,2.9,1.7,4.1,5.4,2.6,8.6h0ZM363.7,341.6c-3,4.6-6.1,9.1-9.2,13.6-7.1,10.5-14.3,21.1-21.4,31.6-1.6,2.4-3.7,3.5-6.5,3.3-3.4-.3-6-3.3-6-6.8,0-1.6.7-3,1.6-4.4,5.2-7.7,10.5-15.3,15.7-23,4.7-7,9.5-14,14.2-21,1.3-2,3-3.2,5.3-3.4,2.7-.2,4.9.7,6.2,3,1.5,2.3,1.6,4.8,0,7.1h.1ZM396.7,364.2c-1.8,2.6-5,3.6-7.8,2.5-4-1.5-5.6-6.2-3.3-9.9,2.2-3.4,4.5-6.8,6.8-10.1,7.1-10.5,14.2-21.1,21.4-31.5.7-1,1.6-2,2.7-2.7,4.6-2.7,9.9.6,9.9,6.1,0,1.4-.7,2.7-1.5,4-6.7,9.8-13.4,19.6-20,29.5-2.8,4.1-5.4,8.1-8.3,12.1h0ZM412.2,431.1c-2.4,0-4.4-1.2-5.6-3.5-1.2-2.2-1.2-4.5.1-6.6,4.9-7.3,9.9-14.7,14.9-21.9,3-4.4,9.1-3.6,11.3.4,1.4,2.5,1.2,4.9-.4,7.3-1.7,2.5-3.4,5-5.1,7.6-3.1,4.6-6.3,9.3-9.4,13.9-1.3,2-3.2,2.9-5.8,3h0ZM607.5,529.6c-.1.2-.3.4-.4.7-3,4.5-6.1,9-9.1,13.4-1.4,2-3.3,3.3-5.4,3.2-5.2,0-8.6-5.2-6.2-9.7.1-.3.3-.6.5-.8,3-4.5,6.2-9.1,9.2-13.6,1.1-1.6,2.5-2.8,4.5-3,2.8-.4,5,.5,6.6,2.8,1.6,2.3,1.6,4.7.3,7.1h0Z"/>
    </g>
  </g>
</svg>