<?xml version="1.0" encoding="UTF-8"?>
<svg id="_x30_1" xmlns="http://www.w3.org/2000/svg" version="1.1" viewBox="0 0 3240.4 2412.2">
  <!-- Generator: Adobe Illustrator 29.1.0, SVG Export Plug-In . SVG Version: 2.1.0 Build 142)  -->
  <defs>
    <style>
      .st0 {
        fill: #fffdf3;
      }

      .st1 {
        fill: #fff4dc;
      }

      .st2 {
        fill: #fcd99d;
      }

      .st3 {
        fill: #ffd3b6;
      }

      .st4 {
        fill: #2c6284;
      }

      .st5, .st6 {
        fill: #fff;
      }

      .st7 {
        opacity: .8;
      }

      .st8 {
        fill: #042333;
      }

      .st9 {
        fill: #5c1311;
      }

      .st10 {
        fill: #682823;
      }

      .st11 {
        fill: #f7dfad;
      }

      .st12 {
        opacity: .6;
      }

      .st13 {
        fill: #ff9e80;
      }

      .st14 {
        fill: #ffc05a;
      }

      .st15 {
        fill: #16384d;
      }

      .st6 {
        display: none;
        opacity: 0;
      }

      .st16 {
        fill: #1d4559;
      }

      .st17 {
        opacity: .7;
      }

      .st18 {
        fill: #dcf9f5;
      }

      .st19 {
        fill: #366f91;
      }

      .st20 {
        fill: #fff6ee;
      }

      .st21 {
        fill: #230303;
      }

      .st22 {
        fill: #c1303f;
      }

      .st23 {
        fill: #2a878d;
      }

      .st24 {
        fill: #f73c51;
      }

      .st25 {
        fill: #95d1cb;
      }

      .st26 {
        fill: #efab48;
      }
    </style>
  </defs>
  <rect id="_x30_11" data-name="_x30_1" class="st6" x="-757.6" y="-311" width="4680" height="3120"/>
  <g>
    <path class="st1" d="M1894.4,214.3c-51.7-25.6-126.6-9.9-155.3,42-17.5-83-100.5-119.7-179.8-109-36.4,4.9-68.5,22.1-89.2,52.6-9.5,14-29.5,50.9-17.2,67.5-63.7-85.6-177,11.4-164.6,93.9,7.7,51.6,49,89.5,102.4,89.7,120.4.6,240.8,2.3,361.2,3.1,33.5.2,78.3,6.6,119.8,4.6,35.5-1.7,68.6-9.6,90.1-32.9,16.3-17.6,22.7-42.3,22-66-1.9-58.4-35.5-118.9-89.5-145.6Z"/>
    <path class="st1" d="M763.5,760.4c-51.5-25.5-126.1-9.9-154.7,41.9-17.5-82.7-100.1-119.3-179.2-108.6-36.3,4.9-68.3,22-88.9,52.5-9.4,14-29.4,50.8-17.1,67.2-63.5-85.3-176.3,11.4-164,93.6,7.7,51.4,48.8,89.1,102,89.4,120,.6,239.9,2.3,359.9,3.1,33.4.2,78,6.6,119.4,4.6,35.4-1.7,68.4-9.6,89.8-32.7,16.2-17.5,22.7-42.1,21.9-65.8-1.9-58.2-35.4-118.5-89.2-145.1Z"/>
    <path class="st1" d="M3014.1,560.5c-51.7-25.6-126.6-9.9-155.3,42-17.5-83-100.5-119.7-179.8-109-36.4,4.9-68.5,22.1-89.2,52.6-9.5,14-29.5,50.9-17.2,67.5-63.7-85.6-177,11.4-164.6,93.9,7.7,51.6,49,89.5,102.4,89.7,120.4.6,240.8,2.3,361.2,3.1,33.5.2,78.3,6.6,119.8,4.6,35.5-1.7,68.6-9.6,90.1-32.9,16.3-17.6,22.7-42.3,22-66-1.9-58.4-35.5-118.9-89.5-145.6Z"/>
    <g>
      <g>
        <circle class="st5" cx="816.2" cy="504.2" r="352.9"/>
        <path class="st5" d="M1066,254.4c-32.5-32.5-70.2-57.9-112.3-75.7-43.6-18.4-89.8-27.8-137.5-27.8s-94,9.3-137.5,27.8c-42.1,17.8-79.9,43.3-112.3,75.7-32.5,32.5-57.9,70.2-75.7,112.3-18.4,43.6-27.8,89.8-27.8,137.5s9.3,94,27.8,137.5c17.8,42.1,43.3,79.9,75.7,112.3,32.5,32.5,70.2,57.9,112.3,75.7,43.6,18.4,89.8,27.8,137.5,27.8s94-9.3,137.5-27.8c42.1-17.8,79.9-43.3,112.3-75.7,32.5-32.5,57.9-70.2,75.7-112.3,18.4-43.6,27.8-89.8,27.8-137.5s-9.3-94-27.8-137.5c-17.8-42.1-43.3-79.9-75.7-112.3ZM1065.3,753.4c-66.6,66.6-155,103.2-249.2,103.2s-182.6-36.7-249.2-103.2c-66.6-66.6-103.2-155-103.2-249.2s36.7-182.6,103.2-249.2,155-103.2,249.2-103.2,182.6,36.7,249.2,103.2c66.6,66.6,103.2,155,103.2,249.2s-36.7,182.6-103.2,249.2Z"/>
      </g>
      <path class="st11" d="M813.6,162.7c-1.7,0-3,1.3-3,3v65.8c0,1.7,1.3,3,3,3s3-1.3,3-3v-65.8c0-1.7-1.3-3-3-3Z"/>
      <path class="st2" d="M815.2,136.2c-202.8,0-367.1,164.4-367.1,367.1s164.4,367.1,367.1,367.1,367.1-164.4,367.1-367.1-164.4-367.1-367.1-367.1ZM1151.2,510c-3.5,181.2-149.7,327.4-330.9,330.9v-70.4h-13.4v70.4c-181.1-3.5-327.3-149.7-330.9-330.9h71.8v-13.4h-71.8c3.5-181.1,149.7-327.3,330.9-330.9v70.4h13.4v-70.4c181.1,3.5,327.3,149.7,330.9,330.8h-70.4v13.4h70.4Z"/>
      <path class="st11" d="M572.9,266.6c-1.2-1.2-3.1-1.2-4.2,0-1.2,1.2-1.2,3.1,0,4.2l21.9,21.9c.6.6,1.4.9,2.1.9s1.5-.3,2.1-.9c1.2-1.2,1.2-3.1,0-4.2l-21.9-21.9Z"/>
      <path class="st11" d="M679.4,193.7c-.7-1.5-2.5-2.1-4-1.4-1.5.7-2.1,2.5-1.4,4l13.5,28.4c.5,1.1,1.6,1.7,2.7,1.7s.9,0,1.3-.3c1.5-.7,2.1-2.5,1.4-4l-13.5-28.4Z"/>
      <path class="st11" d="M539.5,381.2l-35.8-11c-1.6-.5-3.3.4-3.7,2-.5,1.6.4,3.3,2,3.7l35.8,11c.3,0,.6.1.9.1,1.3,0,2.5-.8,2.9-2.1.5-1.6-.4-3.3-2-3.7Z"/>
      <path class="st11" d="M593.7,717.5l-22.4,21.5c-1.2,1.1-1.2,3,0,4.2.6.6,1.4.9,2.2.9s1.5-.3,2.1-.8l22.4-21.5c1.2-1.1,1.2-3,0-4.2-1.1-1.2-3-1.2-4.2,0Z"/>
      <path class="st11" d="M529.3,618.2l-28.6,12.9c-1.5.7-2.2,2.5-1.5,4,.5,1.1,1.6,1.8,2.7,1.8s.8,0,1.2-.3l28.6-12.9c1.5-.7,2.2-2.5,1.5-4-.7-1.5-2.5-2.2-4-1.5Z"/>
      <path class="st11" d="M689,772.9c-1.6-.5-3.3.3-3.8,1.9l-11.7,35.6c-.5,1.6.3,3.3,1.9,3.8.3.1.6.2.9.2,1.3,0,2.4-.8,2.8-2.1l11.7-35.6c.5-1.6-.3-3.3-1.9-3.8Z"/>
      <path class="st11" d="M940.6,776.5c-.6-1.5-2.4-2.2-3.9-1.6-1.5.6-2.2,2.4-1.6,3.9l14.7,34.5c.5,1.1,1.6,1.8,2.8,1.8s.8,0,1.2-.2c1.5-.6,2.2-2.4,1.6-3.9l-14.7-34.5Z"/>
      <path class="st11" d="M1040.5,701.5c-1.2-1.2-3.1-1.2-4.2,0s-1.2,3.1,0,4.2l26.5,26.5c.6.6,1.4.9,2.1.9s1.5-.3,2.1-.9c1.2-1.2,1.2-3.1,0-4.2l-26.5-26.5Z"/>
      <path class="st11" d="M1126.1,630.8l-35.6-11.7c-1.6-.5-3.3.3-3.8,1.9-.5,1.6.3,3.3,1.9,3.8l35.6,11.7c.3.1.6.2.9.2,1.3,0,2.4-.8,2.8-2.1.5-1.6-.3-3.3-1.9-3.8Z"/>
      <path class="st11" d="M1066.7,278.8l-28.4,25.5c-1.2,1.1-1.3,3-.2,4.2.6.7,1.4,1,2.2,1s1.4-.3,2-.8l28.4-25.5c1.2-1.1,1.3-3,.2-4.2-1.1-1.2-3-1.3-4.2-.2Z"/>
      <path class="st11" d="M1130.4,385l-33.1,13.5c-1.5.6-2.3,2.4-1.6,3.9.5,1.2,1.6,1.9,2.8,1.9s.8,0,1.1-.2l33.1-13.5c1.5-.6,2.3-2.4,1.6-3.9-.6-1.5-2.4-2.3-3.9-1.6Z"/>
      <path class="st11" d="M963.1,197.2c-1.5-.7-3.3,0-4,1.5l-14.9,33.5c-.7,1.5,0,3.3,1.5,4,.4.2.8.3,1.2.3,1.2,0,2.2-.7,2.7-1.8l14.9-33.5c.7-1.5,0-3.3-1.5-4Z"/>
      <g>
        <path class="st2" d="M820.5,483.6v-211.5h-13.8v226.6c0,.5-8,2.9-8.6,3.1-25.8,9.2-51.6,18.4-77.4,27.5-16.5,5.9-33.1,11.8-49.6,17.7-7.7,2.8-15.5,5.5-23.2,8.3-3.5,1.2-7.3,2.2-10.6,3.8-2.7,1.3-2.9,1.3-2.1,4.4.6,2.3,1.7,4.7,3.1,6.7,2.4,3.5,4.4,1.6,8.2.2,5.7-2,11.3-4,17-6,6.1-2.2,12.2-4.3,18.2-6.5,6.3-2.3,12.7-4.5,19-6.8,6.4-2.3,12.8-4.6,19.2-6.9,6.3-2.2,12.6-4.5,18.9-6.7,6-2.1,12.1-4.3,18.1-6.4,5.6-2,11.2-4,16.7-6,4.9-1.8,9.9-3.5,14.8-5.3,4.1-1.5,8.3-2.9,12.4-4.4,5.4-1.9,12.1-2.6,16.5-6.6,1.7-1.5,2.6-3.8,3-6.1.4-2.8,0-5.8,0-8.6v-10.6Z"/>
        <path class="st11" d="M823.5,494.2v-225.1h-19.8v227.8c-1,.4-2.7.9-5.5,1.8-.6.2-1,.3-1.1.4l-150.2,53.5c-1.1.4-2.3.8-3.5,1.1-2.5.8-5.1,1.6-7.5,2.8-3.8,1.8-4.9,3.2-3.6,7.9.8,2.7,2,5.4,3.5,7.6,1.7,2.5,3.6,3.2,5.4,3.2s3.2-.7,4.5-1.2c.5-.2,1.1-.5,1.8-.7l154.5-55c1.4-.5,3-.9,4.7-1.4,4.3-1.2,9.2-2.5,12.8-5.8,2.6-2.4,3.6-5.6,3.9-7.9.3-2.2.3-4.4.2-6.5,0-.9,0-1.7,0-2.6ZM817.4,502.4c-.3,1.9-1,3.4-2,4.3-2.6,2.3-6.3,3.3-10.3,4.4-1.7.5-3.5.9-5.2,1.5l-154.5,55c-.8.3-1.5.6-2.1.8-.7.3-1.8.7-2,.7,0,0-.2-.1-.6-.7-1.1-1.6-2.1-3.7-2.7-5.8,0-.1,0-.4-.2-.6.2,0,.4-.2.6-.3,2.1-1,4.4-1.7,6.7-2.5,1.2-.4,2.5-.8,3.6-1.2l150.2-53.5c.1,0,.5-.1.9-.3,7.9-2.4,9.7-3,9.7-5.6v-223.6h7.8v219.1c0,.9,0,1.8,0,2.8,0,1.9.1,3.7-.1,5.4Z"/>
      </g>
    </g>
    <g>
      <rect class="st15" x="1134.1" y="702.9" width="1913.5" height="1463.9" rx="80.1" ry="80.1"/>
      <rect class="st18" x="1237.4" y="747.8" width="1676.6" height="1294.9" rx="51.2" ry="51.2"/>
      <g class="st17">
        <path class="st5" d="M1924.3,747.3h-332.8c-108,0-216.1,0-324.1,0-16.6,0-30.3,13.7-30.3,30.4v297.5c0,147.9-3.6,294.6-3.6,442.6-.8-1.6-3.2-.2-1.6.7,1.6.9,3.4-.5,4.6-1.8,1.2-1.4,2.6-4.1,4.4-3.8,130.5-131.3,260.6-263.1,391.2-394.4,120.7-121.4,374.9-371.4,374.9-371.4-27,0-56.7.1-82.7.1Z"/>
      </g>
      <g class="st17">
        <path class="st5" d="M2515.2,1675.2c-120.7,121.4-241.5,242.8-362.2,364.3-1.2,1.2-8.2,10.3-10.1,10.1,25.3,1.9,54-3.2,80-3.2h332.8c108,0,216.1,0,324.1,0,16.6,0,36.2-13.5,36.2-30.3,0-99.2-2.3-740.3-2.3-740.3,0,0-268,268.1-398.5,399.4Z"/>
      </g>
      <path class="st23" d="M2889.9,747.8h-1628.3c-13.3,0-24.2,10.8-24.2,24.2v110.6h1676.6v-110.6c0-13.3-10.8-24.2-24.2-24.2Z"/>
      <circle class="st15" cx="2648.3" cy="811.4" r="26.2"/>
      <circle class="st15" cx="2730.7" cy="811.4" r="26.2"/>
      <circle class="st15" cx="2813" cy="811.4" r="26.2"/>
      <path class="st26" d="M2620.6,325.9h-1177.6c-34.4,0-62.6,28.3-62.6,62.9v1548.9c0,34.6,28.2,62.9,62.6,62.9h1177.6c34.4,0,62.6-28.3,62.6-62.9V388.9c0-34.6-28.2-62.9-62.6-62.9Z"/>
      <path class="st14" d="M2598,342.6h-1162.7c-34,0-61.8,28.1-61.8,62.4v1534.7c0,34.3,27.8,62.4,61.8,62.4h1162.7c34,0,61.8-28.1,61.8-62.4V404.9c0-34.3-27.8-62.4-61.8-62.4Z"/>
      <path class="st0" d="M2574.7,378.7h-1115.1c-25,0-45.4,21-45.4,46.6v1487.9c0,25.6,20.4,46.6,45.4,46.6h1115.1c25,0,45.4-21,45.4-46.6V425.3c0-25.6-20.4-46.6-45.4-46.6Z"/>
      <path class="st1" d="M2574.7,375.4h-1115.1c-25,0-45.4,4-45.4,9v287.3c0,4.9,20.4,9,45.4,9h1115.1c25,0,45.4-4,45.4-9v-287.3c0-4.9-20.4-9-45.4-9Z"/>
      <path class="st1" d="M2573.9,903.4h-1115.1c-25,0-45.4,4-45.4,9v287.3c0,4.9,20.4,9,45.4,9h1115.1c25,0,45.4-4,45.4-9v-287.3c0-4.9-20.4-9-45.4-9Z"/>
      <path class="st1" d="M2573.9,1414.9h-1115.1c-25,0-45.4,4-45.4,9v287.3c0,4.9,20.4,9,45.4,9h1115.1c25,0,45.4-4,45.4-9v-287.3c0-4.9-20.4-9-45.4-9Z"/>
      <path class="st22" d="M1637.3,526.2c-3.6-.9-7.9-1.4-13.1-1.4h-42c-5.1,0-9.1,1.3-12,4-2.9,2.7-4.4,6-4.4,10.1s1.8,8.5,5.3,10.6c3.5,2.1,8.7,3.1,15.6,3.1h28.6v29.6c-7.7,4.2-15.3,7.3-22.9,9.6-7.5,2.2-15.6,3.4-24.1,3.4-17.6,0-31.3-5.8-41.2-17.3-9.8-11.5-14.8-28-14.8-49.5s1.3-18.9,3.8-27c2.5-8.1,6.2-15,11-20.6,4.8-5.6,10.5-9.9,17.3-12.8,6.7-2.9,14.4-4.4,22.9-4.4s15.1,1.2,20.5,3.7c5.4,2.5,9.6,5.6,12.8,9.2,3.2,3.7,7,9.1,11.6,16.2,1.7,2.2,3.7,4,6.2,5.2,2.4,1.2,5,1.9,7.7,1.9,4.8,0,8.9-1.6,12.4-4.9,3.4-3.3,5.2-7.2,5.2-11.9s-1.5-9.3-4.5-14.8c-3-5.6-7.4-10.8-13.3-15.8-5.9-5-13.6-9.1-23-12.4-9.5-3.3-20.3-4.9-32.6-4.9s-28.3,2.2-40.1,6.5c-11.8,4.4-21.8,10.6-30,18.9-8.2,8.2-14.4,18.2-18.7,30-4.2,11.8-6.4,24.8-6.4,39s2.2,27.5,6.5,39.2c4.4,11.7,10.6,21.7,18.7,29.9,8.1,8.2,18,14.5,29.5,18.8,11.5,4.3,24.3,6.5,38.4,6.5s23.2-1.4,33.4-4.1c10.2-2.7,20.8-7.1,31.9-13.1,3.8-2.1,7-4.2,9.4-6.5,2.4-2.2,4.1-4.8,5-7.5.9-2.8,1.4-6.5,1.4-11.1v-35c0-6.3-1.1-11-3.3-14.2-2.2-3.2-5.1-5.2-8.7-6.1Z"/>
      <path class="st22" d="M1915.6,446.6c-13.6-7.7-29.8-11.5-48.8-11.5s-26.4,2.2-37.4,6.5c-11,4.4-20.3,10.6-27.9,18.9-7.6,8.2-13.5,18.2-17.5,29.9-4,11.7-6,24.6-6,38.6s1.9,26.4,5.8,38.2c3.9,11.8,9.6,21.9,17.1,30.3,7.6,8.4,17,14.9,28.3,19.5,11.3,4.6,24.1,6.9,38.4,6.9s27.1-2.2,38.2-6.7c11.1-4.5,20.5-11,28.2-19.4,7.6-8.5,13.4-18.5,17.2-30,3.8-11.5,5.7-24.4,5.7-38.5s-3.5-35.7-10.5-49.9c-7-14.2-17.3-25.1-30.8-32.8ZM1912.4,565.5c-4.7,9.9-11,17.2-18.9,21.9-7.9,4.7-16.6,7.1-26.1,7.1s-14.2-1.4-20.4-4.1c-6.2-2.7-11.7-6.9-16.4-12.4-4.8-5.5-8.5-12.5-11.1-20.9-2.6-8.4-3.9-17.8-3.9-28.2s1.3-19.6,3.9-27.8c2.6-8.3,6.2-15.1,10.7-20.4,4.5-5.3,9.9-9.4,16.2-12.1,6.3-2.8,13.1-4.2,20.5-4.2s19.6,2.5,27.6,7.5c8,5,14.2,12.4,18.5,22.2,4.3,9.8,6.5,21.4,6.5,34.8s-2.3,26.6-7,36.5Z"/>
      <path class="st22" d="M2191.4,469.6c-2.2-5.9-4.1-10.6-5.5-14.1-1.5-3.5-3.2-6.8-5.4-9.9-2.1-3.1-4.9-5.6-8.3-7.5-3.4-2-7.7-2.9-12.9-2.9s-9.3,1-12.8,2.9c-3.4,2-6.2,4.5-8.3,7.7-2.1,3.2-4.1,7.1-6,11.9-1.9,4.8-3.5,8.9-4.8,12.3l-46.7,118.6c-1.9,4.7-3.3,8.4-4.1,11.1-.8,2.7-1.2,5.2-1.2,7.7,0,4.3,1.8,8.2,5.4,11.6,3.6,3.4,7.7,5.1,12.3,5.1s9.4-1.6,11.8-4.8c2.4-3.2,5.3-9.4,8.7-18.5l8.7-23.4h74.2l8.7,22.9c1.2,2.8,2.6,6.1,4.2,9.8,1.6,3.7,3.1,6.4,4.5,8.2,1.4,1.8,3.2,3.2,5.2,4.2,2.1,1,4.6,1.6,7.5,1.6,5,0,9.2-1.8,12.8-5.3,3.5-3.5,5.3-7.4,5.3-11.6s-1.9-10.6-5.6-19.6l-47.7-117.8ZM2134.5,549.4l29.8-75.4,30.4,75.4h-60.2Z"/>
      <path class="st22" d="M2517,593.2h-75v-132.9c0-7.6-1.7-13.2-5.2-16.9-3.4-3.7-8-5.5-13.5-5.5s-9.9,1.9-13.3,5.6c-3.4,3.7-5,9.3-5,16.8v140.6c0,8,1.8,13.7,5.3,17.3,3.5,3.6,9.3,5.4,17.4,5.4h89.3c6.1,0,10.7-1.4,13.8-4.2,3.2-2.8,4.7-6.4,4.7-10.9s-1.6-8.1-4.8-11c-3.2-2.9-7.8-4.4-13.8-4.4Z"/>
      <path class="st26" d="M2016.1,375.7c-1.7,0-3,1.3-3,3v1581.1c0,1.7,1.3,3,3,3s3-1.3,3-3V378.7c0-1.7-1.3-3-3-3Z"/>
      <path class="st26" d="M1711.7,375.7c-1.7,0-3,1.3-3,3v1581.1c0,1.7,1.3,3,3,3s3-1.3,3-3V378.7c0-1.7-1.3-3-3-3Z"/>
      <path class="st26" d="M2303.5,373c-1.7,0-3,1.4-3,3l12.9,1583.7c0,1.6,1.4,3,3,3s0,0,0,0c1.7,0,3-1.4,3-3l-12.9-1583.7c0-1.7-1.4-3-3-3Z"/>
      <path class="st26" d="M2616.4,680.1h-1200.6c-1.7,0-3,1.3-3,3s1.3,3,3,3h1200.6c1.7,0,3-1.3,3-3s-1.3-3-3-3Z"/>
    </g>
    <g>
      <path class="st14" d="M330.3,2022.1h1007.8c-1.1-21.1-18.9-37.9-40.7-37.9H257.9c-22.5,0-40.8,17.9-40.8,40v147.6c0,22.1,18.2,40,40.8,40h1039.6c21.8,0,39.6-16.8,40.7-37.9H330.3c-22.5,0-40.8-17.9-40.8-40v-71.7c0-22.1,18.2-40,40.8-40Z"/>
      <rect class="st5" x="275.9" y="2022.1" width="1088" height="151.7" rx="39.4" ry="39.4"/>
      <path class="st10" d="M1338.2,2060.2l-1062.3.4c-.8,0-1.5.7-1.5,1.5s.7,1.5,1.5,1.5l1062.3-.4c.8,0,1.5-.7,1.5-1.5s-.7-1.5-1.5-1.5Z"/>
      <path class="st10" d="M1363.9,2096.5H334c-.8,0-1.5.7-1.5,1.5s.7,1.5,1.5,1.5h1029.9c.8,0,1.5-.7,1.5-1.5s-.7-1.5-1.5-1.5Z"/>
      <path class="st10" d="M1105.3,2112H275.9c-.8,0-1.5.7-1.5,1.5s.7,1.5,1.5,1.5h829.4c.8,0,1.5-.7,1.5-1.5s-.7-1.5-1.5-1.5Z"/>
    </g>
    <g>
      <path class="st25" d="M330.5,1550.4h1009.5c-1.1-21.6-18.9-38.7-40.8-38.7H258c-22.5,0-40.8,18.3-40.8,40.8v150.7c0,22.5,18.3,40.8,40.8,40.8h1041.3c21.8,0,39.7-17.2,40.8-38.7H330.5c-22.5,0-40.8-18.3-40.8-40.8v-73.3c0-22.5,18.3-40.8,40.8-40.8Z"/>
      <rect class="st5" x="276" y="1550.4" width="1089.8" height="154.9" rx="39.4" ry="39.4"/>
      <path class="st10" d="M1340,1589.3l-1064,.4c-.8,0-1.5.7-1.5,1.5,0,.8.7,1.5,1.5,1.5l1064-.4c.8,0,1.5-.7,1.5-1.5s-.7-1.5-1.5-1.5Z"/>
      <path class="st10" d="M1365.8,1626.3H334.2c-.8,0-1.5.7-1.5,1.5s.7,1.5,1.5,1.5h1031.6c.8,0,1.5-.7,1.5-1.5s-.7-1.5-1.5-1.5Z"/>
      <path class="st10" d="M1106.8,1642.2H276c-.8,0-1.5.7-1.5,1.5s.7,1.5,1.5,1.5h830.8c.8,0,1.5-.7,1.5-1.5s-.7-1.5-1.5-1.5Z"/>
    </g>
    <g>
      <path class="st24" d="M267.3,1791.1h1009.6c-1.1-21.1-18.9-37.9-40.8-37.9H194.7c-22.6,0-40.8,17.9-40.8,40v147.6c0,22.1,18.3,40,40.8,40h1041.5c21.9,0,39.7-16.8,40.8-37.9H267.3c-22.6,0-40.8-17.9-40.8-40v-71.7c0-22.1,18.3-40,40.8-40Z"/>
      <rect class="st20" x="212.8" y="1791.1" width="1089.9" height="151.7" rx="39.4" ry="39.4"/>
      <path class="st10" d="M1277,1829.2l-1064.2.4c-.8,0-1.5.7-1.5,1.5,0,.8.7,1.5,1.5,1.5l1064.2-.4c.8,0,1.5-.7,1.5-1.5s-.7-1.5-1.5-1.5Z"/>
      <path class="st10" d="M1302.7,1865.5H271c-.8,0-1.5.7-1.5,1.5s.7,1.5,1.5,1.5h1031.7c.8,0,1.5-.7,1.5-1.5s-.7-1.5-1.5-1.5Z"/>
      <path class="st10" d="M1043.7,1881H212.8c-.8,0-1.5.7-1.5,1.5s.7,1.5,1.5,1.5h830.9c.8,0,1.5-.7,1.5-1.5s-.7-1.5-1.5-1.5Z"/>
      <rect class="st24" x="118.1" y="1754.1" width="389.3" height="227.8" rx="43.3" ry="43.3"/>
    </g>
    <g>
      <path class="st24" d="M393,1085.1h1003.1c-1.1-21.1-18.8-37.9-40.5-37.9H320.9c-22.4,0-40.6,17.9-40.6,40v147.6c0,22.1,18.2,40,40.6,40h1034.7c21.7,0,39.4-16.8,40.5-37.9H393c-22.4,0-40.6-17.9-40.6-40v-71.7c0-22.1,18.2-40,40.6-40Z"/>
      <rect class="st5" x="338.8" y="1085.1" width="1082.8" height="151.7" rx="39.4" ry="39.4"/>
      <path class="st10" d="M1396.1,1123.2l-1057.2.4c-.8,0-1.5.7-1.5,1.5s.7,1.5,1.5,1.5l1057.2-.4c.8,0,1.5-.7,1.5-1.5s-.7-1.5-1.5-1.5Z"/>
      <path class="st10" d="M1421.6,1159.4H396.6c-.8,0-1.5.7-1.5,1.5s.7,1.5,1.5,1.5h1025c.8,0,1.5-.7,1.5-1.5s-.7-1.5-1.5-1.5Z"/>
      <path class="st10" d="M1164.3,1174.9H338.8c-.8,0-1.5.7-1.5,1.5s.7,1.5,1.5,1.5h825.5c.8,0,1.5-.7,1.5-1.5s-.7-1.5-1.5-1.5Z"/>
    </g>
    <g>
      <path class="st2" d="M287.2,1314h1009.6c-1.1-21.9-18.9-39.3-40.8-39.3H214.7c-22.6,0-40.8,18.5-40.8,41.4v152.9c0,22.9,18.3,41.4,40.8,41.4h1041.5c21.9,0,39.7-17.4,40.8-39.3H287.2c-22.6,0-40.8-18.5-40.8-41.4v-74.3c0-22.9,18.3-41.4,40.8-41.4Z"/>
      <rect class="st5" x="232.7" y="1314" width="1089.9" height="157.2" rx="39.4" ry="39.4"/>
      <path class="st10" d="M1296.9,1353.5l-1064.2.4c-.8,0-1.5.7-1.5,1.5,0,.8.7,1.5,1.5,1.5l1064.2-.4c.8,0,1.5-.7,1.5-1.5,0-.8-.7-1.5-1.5-1.5Z"/>
      <path class="st10" d="M1322.6,1391.1H290.9c-.8,0-1.5.7-1.5,1.5s.7,1.5,1.5,1.5h1031.7c.8,0,1.5-.7,1.5-1.5s-.7-1.5-1.5-1.5Z"/>
      <path class="st10" d="M1063.6,1407.2H232.7c-.8,0-1.5.7-1.5,1.5s.7,1.5,1.5,1.5h830.9c.8,0,1.5-.7,1.5-1.5s-.7-1.5-1.5-1.5Z"/>
      <rect class="st14" x="138.1" y="1275.7" width="389.3" height="236" rx="43.3" ry="43.3"/>
    </g>
    <path class="st19" d="M2946.1,2213.3H232.1c-2.5,0-4.5,2-4.5,4.5s2,4.5,4.5,4.5h2714.1c2.5,0,4.5-2,4.5-4.5s-2-4.5-4.5-4.5Z"/>
    <g>
      <g>
        <path class="st16" d="M3042.3,2044.5l8.5.6c-.9-.3-1.7-.5-2.6-.6-.5,0-1,0-1.5,0-1.5,0-2.9,0-4.4,0Z"/>
        <path class="st16" d="M3062.3,2054.6c-3.3-6.4-7.2-9.7-14.1-10.1.8.1,1.7.3,2.6.6l-8.5-.6c1.5,0,2.9,0,4.4,0,.5,0,1,0,1.5,0-3.8-.6-7.3,0-11.3,0h-309.9c-29.4,0-59.2-.8-88.5.6-51.5,2.5-103.8-.4-155.3-.7-51.4-.3-102.9-.5-154.3-.5H727.9c-82.2,0-164.4-.7-246.5-.7s-43.8-6.3-56.7,8.4c-6.7,7.6-9.5,17.4-9.6,27.3-.2,25,13.4,49.6,27.2,69.6,12.2,17.8,26.8,34.3,43.5,47.9,11.4,9.3,26.5,20.7,41.9,20.7h2313.1c10.4,0,20.8.3,31.2,0,35-1.3,73.5,6.4,107.4-4.5,56.1-18,86.3-87.2,85.4-142.3,0-5.7,0-10.5-2.6-15.7Z"/>
      </g>
      <path class="st8" d="M3024.6,2050.8h-208c-83.4,0-166.8-.4-250.2-.4h-835.5c-50.5,0-102.8-4.6-153.2,0-104.2,9.6,23.3,166.8,92.8,166.8h1261.6c.4,0,.8,0,1.2,0,2.1,0,4.1,0,6.2-.2,29.7-2,55.1-13.9,74.4-36.8,23.9-28.4,55.6-84.9,33.3-121.8-4.8-8-14-7.6-22.7-7.6Z"/>
    </g>
    <g>
      <rect class="st26" x="1834.1" y="853.9" width="929.4" height="895.8" rx="48.5" ry="48.5"/>
      <rect class="st2" x="1838.5" y="877.5" width="904.7" height="879.3" rx="48.5" ry="48.5"/>
      <rect class="st1" x="1872.4" y="919.8" width="828.6" height="805.4" rx="48.5" ry="48.5"/>
      <rect class="st5" x="2465.2" y="953" width="211.4" height="676.4" rx="12" ry="12"/>
      <rect class="st5" x="2211.5" y="1139" width="211.4" height="490.4" rx="12" ry="12"/>
      <rect class="st5" x="1957.9" y="1249" width="211.4" height="380.5" rx="12" ry="12"/>
      <g class="st7">
        <rect class="st14" x="2443.9" y="979" width="211.4" height="676.4" rx="12" ry="12"/>
      </g>
      <g class="st7">
        <rect class="st14" x="2190.3" y="1165" width="211.4" height="490.4" rx="12" ry="12"/>
      </g>
      <g class="st7">
        <rect class="st14" x="1936.6" y="1274.9" width="211.4" height="380.5" rx="12" ry="12"/>
      </g>
      <rect class="st14" x="2244.4" y="767.6" width="118.4" height="219.8" rx="12" ry="12"/>
      <path class="st22" d="M2623,1020.8h-106.1c-6.2,0-9.3,7.5-4.9,11.8l30.3,30.3c3,3,2.6,7.9-.7,10.4l-197,148.4c-3.4,2.6-8.2,1.9-10.8-1.5l-11.7-15.5c-31.4-41.6-62.1-83.7-93.4-125.4-2.6-3.4-7.4-4.1-10.8-1.5l-253.4,190.9c-3.4,2.6-4.1,7.4-1.5,10.8l19.7,26.1c2.6,3.4,7.4,4.1,10.8,1.5l214.2-161.4c3.4-2.6,8.2-1.9,10.8,1.5l97,128.7c.2.3.5.6.8.9.7.6,1.3,1.2,1.8,1.9l6.6,8.7c2.6,3.4,7.4,4.1,10.8,1.5l242-182.4c2.8-2.1,6.6-1.8,9.1.6l31.5,31.5c4.4,4.4,11.8,1.3,11.8-4.9v-106.1c0-3.8-3.1-6.9-6.9-6.9Z"/>
    </g>
    <g>
      <path class="st3" d="M1414.4,2221.4c-6.9-6.4-15.5-11.5-24.9-14.7-4.1-1.4-8.4-2.5-11.9-4.7-5.7-3.5-8.8-9.4-11.2-15.1-1.8-4.1-3.3-8.3-3.3-12.7,0-6.7,3.6-13.4,1.7-19.9-2.1-7.2-10.8-11.7-19.3-12.4-8.5-.6-16.8,1.8-24.8,4.4-15.7,5.1-22.6,6.1-23.1,19.7-.5,13.3,4.9,25.7,2.4,39.5-.9,4.8-2.4,9.1-3.5,13-2.2,7.8-2.5,14.3,7.9,20.3,14.6,8.5,36.6,8.1,53.4,8.4,11.9.2,23.8.1,35.5-1.3,6.1-.7,12.2-1.9,17.7-4.2,4.5-1.9,8.8-5.2,9.3-9.5.5-4.1-2.5-7.9-5.8-10.9Z"/>
      <path class="st3" d="M901.7,2232.6c-.5-12.5,4.4-24.4,9.2-36,4.1-9.8,14.6-24.6,14.7-35.1,0-9.9-13.4-15-24.7-16.7-6.8.8-15.4-1.3-22.5-1.1-8.6.3-17.3,1.3-25.5,3.3-5.6,1.4-15.8,3.9-19.3,8.2-2.5,3.1-2.5,8.9-3.4,12.5-1.1,4.9-2.3,9.8-3.4,14.7-3,12.8-6,25.7-11.4,37.8-1.1,2.5-2.7,5-4.1,7.5-1.5,2.8-2.9,5.6-3.1,8.6-.4,6.1,2.1,13.6,5.3,19.2,2.6,4.6,6.4,8.7,10.4,12.5,24.4,23.1,61.5,35.9,96.5,33.3,4.1-.3,8.6-1,10.7-3.9,1.9-2.5,1.4-5.8.8-8.8-4.3-21.5-29.3-32.1-30.3-56.1Z"/>
      <path class="st15" d="M1511.1,2238.8c-.3-1.4-.6-3-1.6-4.1-.8-.9-1.9-1.5-3.1-2-21.8-10.9-47.6-14.7-71.1-22.9-13.8-4.8-29.9-11.7-45.1-12.1-4.9-.1-10.2,1.2-13.3,4.5-3.5,3.8-3.7,9.3-7,13.2-3.8,4.5-10.6,6-16.9,7.2-19,3.6-35,4.7-47.9-9.5-1-1.1-2.6-2.8-4.5-4.5-5-4.5-12.1-9-16.1-1.9-3,5.3,1.3,17.3,1.8,23,1.1,11.6-5.9,40.7,10.6,46.6,11.5,4.1,36.4-1.4,48.7-2,41.1-2.2,82.2-4.5,123.3-6.7,11.3-.6,36.9.9,43.2-10.1,1.7-3,1.1-6.5.5-9.7l-1.6-9Z"/>
      <path class="st15" d="M995.2,2310.2c-14.6-18.3-36.2-31.9-53.5-48.4-10.2-9.7-21.6-22.2-35.1-28.6-4.4-2.1-9.8-3-14.2-1.4-5,1.8-7.8,6.5-12.7,8.6-5.6,2.4-12.5.9-18.7-.6-18.9-4.6-34-10-38.9-27.5-.4-1.4-1-3.5-1.9-5.7-2.4-5.9-6.7-12.6-13.7-8.1-5.3,3.4-7.1,15.5-9.3,20.7-4.5,10.5-24.8,32.9-12.7,44.6,8.5,8.2,33.7,13.5,45.1,17.8,38.3,14.6,76.7,29.2,115,43.8,10.5,4,33,15.6,44,8.6,3-1.9,4.1-5.1,5.1-8.2.9-2.8,1.9-5.6,2.8-8.4.5-1.4.9-2.8.5-4.2-.3-1.1-1.1-2-1.8-3Z"/>
      <path class="st19" d="M1334.9,1330.2c-14.6-39.2-30.6-78-48.1-116.1-33.7-73.7-73.8-136.5-159.7-123.2-49.2,7.6-92.5,34-128.3,67.4-13.9,12.9-49.7,36-49.1,58.5,1.2,41.5,53,103.7,75.8,137.5,35.4,52.5,76.7,100.6,115,150.8,73.7,96.6,112.9,191.1,120.8,311.7,7.4,113.2,10.1,226.9,9.4,339.7,0,4.7,0,9.7,2.7,13.6,2.6,3.8,7,5.8,11.2,7.3,21.7,8,44.9,10.8,67.4,8.7,10.3-.9,23.9-1.9,33-6.8,24.7-13,26.5-61.8,30.9-86.5,6.5-35.7,11.3-71.8,14.6-108.2,6.5-72.7,6.8-146.4,1.3-219.8-11-147.8-44.9-294.6-97-434.8Z"/>
      <path class="st4" d="M1185.7,1279.7c-11.9-15.6-24.7-30.7-38.6-45-24.4-25.3-66.5-72.4-106.9-77.2-33.2-3.9-84.9,31.5-84,62.4,1.2,41.5,53,103.7,75.8,137.5,35.4,52.5,76.7,100.6,115,150.8,73.7,96.6,112.9,191.1,120.8,311.7,7.4,113.2,10.1,226.9,9.4,339.7,0,4.7,0,9.7,2.7,13.6,2.6,3.8,7,5.8,11.2,7.3,18.9,6.9,38.7,6,53.9-8.1,18.1-16.8,19.5-33.6,19.5-57,0-58.2,0-116.5,0-174.7,0-163.5-25.8-328.4-83.2-482.1-23.3-62.4-53.7-124-95.6-178.8Z"/>
      <path class="st19" d="M1151.9,1252.5c-22.7-19.3-63.5-16.9-92.2-14-35.9,3.6-68.4,22-89.3,46-27.1,31.1-37.7,71.3-38.8,111.2-4.2,145.9,49.7,284.9,7.8,429.8-32.1,111.3-69.9,223.7-120,329.4-1.8,3.8-3.7,8-2.7,12.1.9,4,4.3,7.1,7.7,9.8,17.3,13.9,37.9,24.1,59.8,30,10,2.7,23.1,6.5,33.5,5.6,28.1-2.4,48.6-42,62.3-60.8,19.8-27.3,38.2-55.4,55.3-84.3,34.1-57.8,62.7-118.5,85.8-180.9,46.6-125.6,71.5-258.3,76.6-391.6,1.4-37.3,1.3-74.7-.3-112.1-1.8-40.5-8.7-99.1-45.4-130.3Z"/>
      <path class="st5" d="M1096.7,1449.1h0c-1.4,0-2.5,1.1-2.5,2.5-1.4,279.4-17.8,529-204.8,753.9-.9,1.1-.7,2.6.3,3.5.5.4,1,.6,1.6.6s1.4-.3,1.9-.9c45.6-54.8,82-111.9,111.3-174.5,26.7-57,46.9-117.3,61.6-184.2,29.2-132.6,32.4-275.2,33-398.3,0-1.4-1.1-2.5-2.5-2.5Z"/>
      <path class="st5" d="M1040.3,1521.7c-4.8-9-9.9-18.2-14.7-27.4-7.4-13.9-15-28.3-26.4-39.9-1-1-2.6-1-3.5,0-1,1-1,2.6,0,3.5,10.9,11.1,18.4,25.2,25.6,38.8,4.9,9.2,9.9,18.5,14.7,27.4,19.1,35.3,38.8,71.7,54.3,109.6.4,1,1.3,1.6,2.3,1.6s.6,0,.9-.2c1.3-.5,1.9-2,1.4-3.3-15.6-38.2-35.4-74.7-54.5-110.1Z"/>
      <path class="st3" d="M1576,1075.6c-9.1-6-19.2-9.2-29.8-6.3-8.1,2.2-20.2,5.3-19.9,16,.3,13.1,4.9,27.4,8.5,39.9.7,2.6,1.6,5.3,3.5,7.2,2.4,2.3,5.8,3,8.9,4.1,8.1,3.1,13.7,9.9,19.5,16,4.6,4.9,8.6,7.8,15.7,4.7,13.6-6.1,21.5-22.4,21.2-36.7-.4-18.6-12.5-34.8-27.6-44.9Z"/>
      <path class="st5" d="M1565,1094.4c-3.7-6.5-8.1-12.6-13-17.8-4.4-4.7-9.7-9.3-16.5-7.8-6.8,1.5-14.6,4.5-20,9-5.6,4.6-4.2,16-2,21.9,2.2,5.9,6,11.1,9.6,16.2,7.6,10.9,14.6,22.4,18.7,35.1.3.8.6,1.7,1.3,2,.5.2,1,.2,1.6,0,8.2-1,16.2-3.5,23.5-7.4,6.9-3.7,9.2-10.9,8.3-18.4-1.4-11.4-5.9-22.9-11.5-32.8Z"/>
      <path class="st25" d="M1523.4,1071.5c-5-2.5-10.9-1.5-16.4-.5-27.1,5-56,6.9-81.2-4.2-33.4-14.7-53.5-49-68.1-82.5-21-47.8-35.8-98.4-60.1-144.6-14.9-28.3-33.9-55.2-58.2-76.3-11.1-9.6-25.3-21.5-39.5-26.1-16.3-5.2-25.5,3-41,9.1-28.4,11.2-33.2,44.4-39.5,70.9-.5,1.9-.9,3.8-1.3,5.8-7.4,37.2-2.8,82.8,5.5,118.8,5.4,23.4,14.2,45.8,23.5,67.9,22.5,53.6,48.9,107.7,92.5,146.2,42.5,37.5,99.6,57.3,156.3,57,32.9-.2,65.6-6.9,96.1-18.9,6.7-2.6,80-39.5,79.3-41.1-10.2-26-23.6-50.8-40-73.5-2.2-3.1-4.6-6.2-8-8Z"/>
      <path class="st9" d="M1123.7,385.9c-19.2,12-35.2,28.9-55.3,39.3-11.8,6.1-24.9,10-35.3,18.2-24.6,19.6-25.8,56.8-18.5,87.3,7.4,30.7,21.2,59.8,40.3,84.9,12.7,16.7,28.7,32.3,48.9,38.1,23.1,6.7,38.7,1.4,49.4-10.5,25.5-28.5,22.9-94.8,28.5-125.7,1-5.7,2.5-11.5,6.1-16,5-6.1,13-8.5,20.1-11.8,36-16.7,51.4-67.1,23.4-98.5-27-30.2-76-24.9-107.5-5.3Z"/>
      <path class="st3" d="M1208.6,543.3c-1.1-11-2.3-21.9-3.6-32.8-.6-5.4-.8-11.2-2-16.4-1.4-5.8-.1-5.8-6.1-3.9-3.9,1.2-7.3,3.5-11,5.2-2.6,1.2-6.6,2.4-8.6,4.5-2.9,3-2,8.9-2.3,12.7-.4,4.9-.9,9.8-1.6,14.6-1.3,9.2-3.3,18.4-6,27.2-.7,2.4-1.9,5.1-4.4,5.6-4.5,1-5.9-5.7-8.1-9.8-4.7-8.7-19-6.3-24.4,1.9-5.4,8.2-4.3,19-2.7,28.7,1.6,9.7,3.6,20-.3,29-4.8,11-17.4,16.8-29.4,17.6-6.6.5-13.9,0-19,4.2-5.4,4.5-2.2,15.1-1.9,21.4.4,9.5.6,19,.7,28.5.1,30.8-7.7,63.2,9.2,90.9,4.4,7.2,10.1,13.5,17.2,18.4,13.2,8.9,42.5,15.2,55.8,2.4,12.8-12.3,7.5-42.2,5.9-57.5-2.7-26.1-3.4-52.3-2.3-78.5.1-3.2.3-6.6,1.9-9.5,3.4-6.3,11.8-7.7,19-7.5,7.2.3,14.9,1.3,21-2.5,11.9-7.5,8.9-26,8-37.7-1.3-19-3-37.9-4.9-56.8Z"/>
      <g>
        <path class="st9" d="M1210.1,509.2c-.1,0-.3,0-.4-.1-3.8-1.1-8.4-.8-12.1.6-4.3,1.6-10,10.7-1.4,9.2,5.7-1,11.4-1.8,17.1-2.7.4,0,.9-.1,1.3-.4.6-.5.8-1.4.6-2.1-.6-2.2-3-3.8-5-4.5Z"/>
        <path class="st9" d="M1210.8,507.3h0c-.2,0-.4-.1-.5-.2-4.1-1.2-9.1-1-13.4.7-3.4,1.3-8,6.6-7,10.4.3,1.2,1.3,2.9,4.6,2.9s1.3,0,2.1-.2c4.2-.8,8.6-1.4,12.8-2,1.4-.2,2.8-.4,4.2-.6.6,0,1.4-.2,2.2-.8,1.3-.9,1.8-2.6,1.3-4.3-1-3.6-5-5.4-6.2-5.8ZM1213,514.2c-1.4.2-2.8.4-4.2.6-4.2.6-8.6,1.3-12.9,2.1-1.3.2-1.9.1-2.1,0,0-1.1,2.3-4.5,4.6-5.4,3.4-1.3,7.6-1.5,10.8-.6,0,0,.2,0,.3,0,1.5.6,3.4,1.8,3.8,3.1,0,0-.2,0-.2,0Z"/>
      </g>
      <g>
        <path class="st9" d="M1209.1,537.7c-.3-.2-.6-.4-.9-.5-.4-.1-.9-.1-1.3,0-2.3.6-3.1,3.4-2.9,5.7,0,.5.1,1.1.3,1.5,1.3,3.9,6.9,6.5,7.9,1,.5-2.9-.8-5.9-3.1-7.7Z"/>
        <path class="st9" d="M1210.4,536.1c-.4-.3-.9-.7-1.6-.9-.7-.2-1.6-.2-2.4,0-3.4.9-4.6,4.6-4.4,7.8h0c0,.7.2,1.4.4,2,1,3.1,4,5.5,6.8,5.5s.2,0,.3,0c2.3-.2,4.1-1.9,4.6-4.8.7-3.5-.8-7.3-3.8-9.6ZM1210.2,545c-.1.7-.4,1.5-.9,1.5-1,0-2.6-1.2-3.1-2.8,0-.3-.2-.7-.2-1-.1-1.5.3-3.3,1.4-3.6,0,0,.1,0,.1,0,0,0,.1,0,.3.2,1.8,1.4,2.7,3.7,2.3,5.7Z"/>
      </g>
      <g>
        <path class="st13" d="M1216.2,567.4c-1.9-3.5-3.8-7-5.7-10.5l-.2,22.3c1.2.5,2.4,1.2,3.7,1.3,2,.2,4.1-.6,5.1-2.3.8-1.3.6-2.9.2-4.3-.7-2.3-2-4.4-3.1-6.5Z"/>
        <path class="st21" d="M1218.2,568c-.2-.4-.5-.9-.7-1.3-1.1-2.1-2.3-4.2-3.4-6.3-.8-1.4-1.5-2.8-2.3-4.2-.4-.7-1.3-1-2-.6-.7.4-1,1.3-.6,2,.8,1.4,1.5,2.8,2.3,4.2,1.1,2.1,2.3,4.1,3.4,6.2.2.4.5.9.7,1.3.9,1.6,1.8,3.3,2.3,4.9.4,1.4.4,2.3,0,3-.7,1.1-2.2,1.8-3.7,1.6-.8,0-1.6-.4-2.5-.8-.3-.1-.5-.2-.8-.4-.8-.3-1.6,0-2,.8-.3.8,0,1.6.8,2,.3.1.5.2.8.3,1,.5,2.1.9,3.4,1.1.3,0,.5,0,.8,0,2.4,0,4.6-1.2,5.8-3.1.9-1.5,1-3.3.3-5.5-.6-1.9-1.6-3.7-2.5-5.5Z"/>
      </g>
      <g>
        <path class="st13" d="M1148,564.5l.9.7c-.3-.3-.6-.5-.9-.7Z"/>
        <path class="st13" d="M1144.2,557.1c-2.2-1-4.7-.8-7.2-.6l11,8c.3.2.6.4.9.7l-.9-.7c-1.8-1-4.2-1-6.1,0-1.3.6-2.9,1.3-3.1,2.8-.2,1.2.4,2.5,1.2,3.4,1.5,1.8,4.3,3.3,6.6,2.6,2.3-.7,2.8-3.6,2.8-5.9-.1-4-1.4-8.5-5.2-10.3Z"/>
        <path class="st21" d="M1144.9,555.7c-2.6-1.2-5.6-1-7.9-.8-.8,0-1.4.8-1.4,1.6s.8,1.4,1.6,1.4c2.1-.2,4.5-.4,6.4.5,1.7.8,2.7,2.3,3.4,4-1.9-.5-4-.1-5.7.6-1.5.7-3.7,1.7-4,4-.2,1.5.3,3.1,1.5,4.6,1.5,1.8,4,3.3,6.5,3.3.6,0,1.2,0,1.7-.3,2.5-.8,3.9-3.5,3.8-7.4-.2-5.7-2.4-9.9-6-11.6ZM1147.9,567.4c0,1.9-.4,4-1.7,4.4-1.7.5-3.8-.7-5-2.1-.6-.8-1-1.6-.9-2.3,0-.7,1.3-1.2,2.3-1.7.7-.3,1.6-.5,2.5-.5s2,.3,2.7.9c0,.5,0,.9,0,1.3Z"/>
      </g>
      <path class="st23" d="M1329.9,1074.4c-4.6-55.6-7.8-112.8-19-168-5.7-28-13.5-55.5-24.6-81.9-6.2-14.7-13-29.3-22.5-42.1-16-21.6-38.8-37.1-57.9-56-8.3-8.3-16.3-17.6-20.8-28.5-3.5-8.6-1.6-22-7.1-29.1-1.9-2.5-4.9-4.5-8.1-4.5-29.2,0-58.3.1-87.5.2-2.8,0-5.9.1-7.8,2.1-2.2,2.2-2,5.7-1.9,8.8.6,18.7-20.4,33.9-35.4,42.2-14,7.7-29.6,12-43.8,19.2-26.8,13.7-47.8,38.4-56.9,67.1-11.8,37-7.7,77.6-7.7,115.9,0,77.5,0,155,0,232.5,0,72.5,0,145.1,0,217.6,0,13.1-2.2,26.5-.1,39.5,2.6,16.7,4.3,20.3,20.2,21.5,63.1,4.8,128.5-1.2,192-1.2,45.3,0,90.8.5,136.1-.7,27.3-.7,65.5,3.1,80-26.3,9.5-19.3,7-42.1,4.3-63.4-11.2-88.1-24.2-176.2-31.5-264.7Z"/>
      <path class="st15" d="M1352.4,1362.9c-5.7-6.9-11.5-14.4-18.8-19.7-6.4-4.6-8.2-12.5-14.8-16.8-48.9-31.7-107.5-47.6-165.8-47.7-58.3,0-116.3,15.5-168,42.4-18.8,9.7-37.5,21.7-48.1,40-12.3,21.3-24.8,90.3,12.3,93.1,63.1,4.7,128.5-1.2,192-1.2s90.8.5,136.1-.7c27.3-.7,65.5,3.1,80-26.3,8.1-16.4,7.8-34.1,2.8-51.2-1.4-5-4.3-8-7.5-11.9Z"/>
      <path class="st25" d="M1322.6,1074.3c-4.6-55.6-7.8-112.8-19-168-5.7-28-13.5-55.5-24.6-81.9-6.2-14.7-13-29.3-22.5-42.1-16.1-21.6-38.8-37.1-57.9-56-8.3-8.3-16.3-17.6-20.8-28.5-3.5-8.6-1.6-22-7.1-29.1-1.9-2.5-4.9-4.5-8.1-4.5-29.2,0-58.3.1-87.5.2-2.8,0-5.9.1-7.8,2.1-2.2,2.2-2,5.7-1.9,8.8.6,18.7-20.4,33.9-35.4,42.2-14,7.7-29.6,12-43.8,19.2-26.8,13.7-47.8,38.4-56.9,67.1-11.8,37-7.7,77.6-7.7,115.9v450.1c0,13.1-2.2,26.5-.1,39.5,2.6,16.7,4.3,20.3,20.2,21.5,63.1,4.7,128.5-1.2,192-1.2s90.8.5,136.1-.7c27.3-.7,65.5,3.1,80-26.3,9.5-19.3,7-42.1,4.3-63.4-11.2-88.1-24.2-176.2-31.5-264.7Z"/>
      <path class="st21" d="M1021.8,433.7c-7.5,6.3-13.6,15-18.2,25.6-6.2,14.3-8.7,30.1-7.2,45.6.5,4.8,1.3,8.6,2.5,12,.2.6.8,1,1.4,1s.3,0,.5,0c.8-.3,1.2-1.1.9-1.9-1.1-3.1-1.9-6.7-2.3-11.3-1.5-15,.9-30.3,6.9-44.2,4.4-10.2,10.3-18.4,17.4-24.5.6-.5.7-1.5.2-2.1-.5-.6-1.5-.7-2.1-.2Z"/>
      <path class="st21" d="M1221.2,365.8c-.8-.4-1.6,0-2,.7-.4.8,0,1.6.7,2,16.4,7.7,34.8,29.8,32.9,67,0,.8.6,1.5,1.4,1.6,0,0,0,0,0,0,.8,0,1.5-.6,1.5-1.4.7-14-1.8-28.3-7-40.2-6.1-13.8-15.6-24-27.6-29.6Z"/>
      <path class="st5" d="M1103.3,407.3c-6.7,4.9-12.7,10.8-19.7,15.4-1.8,1.2-5,1.8-4,4.8.7,2,3.2,2.7,5.3,2.2,6.1-1.4,12.4-6.5,17.4-9.9,5.6-3.8,10.9-8.1,15.2-13.2,1-1.2,2.2-2.7,2.2-4.4,0-.8-.3-1.6-.9-2.1-4.2-3.4-12.3,4.9-15.5,7.3Z"/>
      <path class="st5" d="M1066.7,430.2c-2.3,0-4.2,1.9-4.2,4.2s1.9,4.2,4.2,4.2,4.2-1.9,4.2-4.2-1.9-4.2-4.2-4.2Z"/>
      <path class="st21" d="M1198.9,555.4h0c-.8,0-1.5.7-1.5,1.5s.7,1.5,1.5,1.5,1.5-.7,1.5-1.5-.7-1.5-1.5-1.5Z"/>
      <g class="st12">
        <path class="st13" d="M1171.9,554.7c-8.1,8.1-8.1,21.1,0,29.2,8.1,8.1,21.1,8.1,29.2,0,8.1-8.1,8.1-21.1,0-29.2-8.1-8.1-21.1-8.1-29.2,0Z"/>
      </g>
      <path class="st5" d="M1307.3,1450.6c-.6-1.2-2.1-1.8-3.3-1.2-1.2.6-1.8,2.1-1.2,3.3,45.7,95.3,73.5,208.8,85,346.9,9.5,114.2,16.7,245.7-18.9,361.8-2.1,7-6.1,15.4-13,15.9-1.4,0-2.4,1.3-2.3,2.6,0,1.3,1.2,2.3,2.5,2.3s.1,0,.2,0c5.4-.3,12.7-4,17.4-19.4,35.8-116.9,28.6-249,19.1-363.7-11.6-138.7-39.5-252.8-85.4-348.6Z"/>
      <path class="st23" d="M1475.9,1108.9c-7.6-4.6-15.4-9.6-21.1-15.7-3.8-4.1-6.7-9-9.6-13.9-1-1.7-2-3.5-3.1-5.2-2.2-3.6-4.8-4.1-6.5-3.9-1.8.2-7.4.9-14.8,23.4v.3c-3.9,11.4-6.5,23.5-8.5,34.4-13.5-20.8-2.4-45.6,6-59.1.7-1.2.4-2.7-.8-3.4-1.2-.7-2.7-.4-3.4.8-16.6,27-17.4,51.7-2.2,69.5.5.6,1.2.9,1.9.9.2,0,.4,0,.7,0,.9-.3,1.6-1,1.8-2,2.2-12.1,4.8-26.2,9.2-39.3v-.4c6.5-19.3,10.6-20,10.8-20,.4,0,1.1.6,1.7,1.6,1,1.7,2.1,3.4,3,5.1,3,5.1,6.1,10.3,10.2,14.8,6.1,6.5,14.3,11.8,22.2,16.6,1.2.7,2.7.3,3.4-.9.7-1.2.3-2.7-.9-3.4Z"/>
      <path class="st23" d="M1324.9,1099.7c-3.7.1-7.3.3-10.8.5-56.6,3.1-113.5,4.4-170.2,6.2-73.4,2.4-149.1,9.9-222.3,9.3v254.1c0,13.1-2.2,26.5-.1,39.5,2.6,16.7,4.3,20.3,20.2,21.5,63.1,4.7,128.5-1.2,192-1.2s90.8.5,136.1-.7c27.3-.7,65.5,3.1,80-26.3,9.5-19.3,7-42.1,4.3-63.4-10.1-79.7-21.7-159.3-29.2-239.3Z"/>
      <path class="st23" d="M1185.7,704.5c-23.3,3.6-47.9,3.9-68.9,3.7-22.1-.2-43.9-2.7-65.1-5.2-1.4-.2-2.6.8-2.8,2.2-.2,1.4.8,2.6,2.2,2.8,21.3,2.5,43.3,5,65.6,5.2,2.9,0,5.8,0,8.9,0,19.1,0,40.4-.7,60.9-3.8,1.4-.2,2.3-1.5,2.1-2.9s-1.5-2.3-2.9-2.1Z"/>
      <path class="st23" d="M1079.5,678.1c-1.3-.4-2.7.3-3.1,1.6-8.2,26-29.9,42.3-50.8,58.2-1.1.8-1.3,2.4-.5,3.5.5.7,1.2,1,2,1s1.1-.2,1.5-.5c21.6-16.3,43.9-33.2,52.6-60.6.4-1.3-.3-2.7-1.6-3.1Z"/>
      <path class="st23" d="M1322.3,1052.6c-14.2,1.9-28.8,3.3-42.9,4.7-19.2,1.9-39.1,3.8-58.7,5.4-100.5,8-202.3,6.4-302.5-4.6-1.4-.2-2.6.8-2.8,2.2-.2,1.4.8,2.6,2.2,2.8,58.3,6.4,117.2,9.6,176,9.6s85.1-1.7,127.4-5c19.6-1.6,39.6-3.5,58.8-5.4,14.1-1.4,28.7-2.8,43-4.7,1.4-.2,2.3-1.4,2.1-2.8-.2-1.4-1.4-2.3-2.8-2.1Z"/>
      <path class="st23" d="M1314.1,996.5c-11.6,1.4-23.5,2.6-35,3.7-19.2,1.9-39.1,3.8-58.7,5.4-100.5,8-202.3,6.4-302.5-4.6-1.4-.2-2.6.8-2.8,2.2-.2,1.4.8,2.6,2.2,2.8,58.3,6.4,117.2,9.6,176,9.6s85.1-1.7,127.4-5c19.6-1.6,39.6-3.5,58.8-5.4,11.5-1.1,23.4-2.3,35.1-3.7,1.4-.2,2.3-1.4,2.2-2.8-.2-1.4-1.4-2.3-2.8-2.2Z"/>
      <path class="st23" d="M1314,945.8c-13.7,1.8-27.8,3.2-41.4,4.5-19.2,1.9-39.1,3.8-58.7,5.4-100.5,8-202.3,6.4-302.5-4.6-1.4-.2-2.6.8-2.8,2.2s.8,2.6,2.2,2.8c58.3,6.4,117.2,9.6,176,9.6s85.1-1.7,127.4-5c19.6-1.6,39.5-3.5,58.8-5.4,13.6-1.3,27.7-2.7,41.5-4.5,1.4-.2,2.3-1.4,2.2-2.8-.2-1.4-1.4-2.3-2.8-2.2Z"/>
      <path class="st23" d="M1305.8,897.3c-10.9,1.3-22.1,2.4-32.9,3.5-19.2,1.9-39.1,3.8-58.7,5.4-100.5,8-202.3,6.4-302.5-4.6-1.4-.2-2.6.8-2.8,2.2-.2,1.4.8,2.6,2.2,2.8,58.3,6.4,117.2,9.6,176,9.6s85.1-1.7,127.4-5c19.6-1.6,39.5-3.5,58.8-5.4,10.8-1.1,22-2.2,33-3.5,1.4-.2,2.3-1.4,2.2-2.8-.2-1.4-1.4-2.3-2.8-2.2Z"/>
    </g>
    <g>
      <path class="st15" d="M1692.1,1045.6c-6.2-6.6-12.9-13.2-21.3-16.6-13.5-5.3-21.1,1.4-30,10.1-10.4,10.2-22.4,19.1-33.4,28.5-100.9,86.8-199.1,176.7-296.1,267.9-96.5,90.8-191.7,182.9-287.3,274.6-46.4,44.6,46.7,163.1,98.6,140,28.1-12.5,47.4-39.7,67.2-62,6.6-7.4,13.3-14.7,20.1-22,57.4-60.9,116-114.6,175.1-173.9,9.4-9.4,18.7-18.8,28.1-28.2,56.7-56.7,115.8-110.9,174.4-165.6,55.8-52.2,111.8-104.1,167.7-156.1,1.8-10.6-1.9-23.4-8.4-32-17.1-22.6-35.3-44.3-54.8-64.8Z"/>
      <path class="st19" d="M1785.3,1077c-30.4-26.6-57.9-56.7-81.8-89.4-4.2-5.8-8.4-11.8-14.4-15.7-5.9-4-12.7-4.5-18.2,0-8,6.6-16.1,13.3-23.7,20.4-10.3,9.6-10.6,19.8-4.4,32,26.2,51.5,67.7,94.8,117.6,123.6,8.2,4.7,17,8.3,24.9,1.2,9.1-8.3,16.4-18.8,25.2-27.5,1.2-18-11.6-32.8-25.2-44.7Z"/>
      <path class="st19" d="M2140.6,250.6c-266.6-27-502.9,169.4-527.9,438.8-25,269.4,170.8,509.7,437.4,536.7,266.6,27,502.9-169.4,527.9-438.8,25-269.4-170.8-509.7-437.4-536.7ZM2536.5,785.2c-22.6,243.3-236.1,420.8-476.9,396.4-175.6-17.8-317.2-138-372.2-296.2-20.5-58.7-29-122.7-22.9-188.6,22.6-243.3,236.1-420.8,476.9-396.4,240.8,24.4,417.7,241.5,395.1,484.8Z"/>
      <path class="st15" d="M2132.2,239c-266.6-27-502.9,169.4-527.9,438.8-25,269.4,170.8,509.7,437.4,536.7,266.6,27,502.9-169.4,527.9-438.8,25-269.4-170.8-509.7-437.4-536.7ZM2528,773.5c-22.6,243.3-236.1,420.8-476.9,396.4-175.6-17.8-317.2-138-372.2-296.2-20.5-58.7-29-122.7-22.9-188.6,22.6-243.3,236.1-420.8,476.9-396.4,240.8,24.4,417.7,241.5,395.1,484.8Z"/>
      <path class="st15" d="M1649.7,1029l3.2,2.4c7.7-10.4,18-19.4,27.2-26.9l-2.5-3.1c-9.3,7.6-19.9,16.9-27.8,27.6Z"/>
      <path class="st15" d="M1659.9,1047.8l2.7,2.9c9.9-9.3,19.8-18.7,29.6-28.1l-2.8-2.9c-9.8,9.4-19.7,18.8-29.6,28.1Z"/>
      <path class="st15" d="M1755.6,1142.9l2.8,2.9c9.3-9,18.1-19,26.4-29.5l-3.2-2.5c-8.1,10.4-16.9,20.2-26,29.1Z"/>
      <path class="st15" d="M1705.5,1101.4l2.7,2.9c9.8-9.2,19.4-18.8,28.6-28.5l-2.9-2.8c-9.1,9.6-18.7,19.2-28.4,28.3Z"/>
      <path class="st15" d="M1667.9,982l-3.5,1.9c31.9,60.4,79.2,111,136.6,146.6l2.1-3.4c-56.9-35.2-103.6-85.3-135.2-145.1Z"/>
    </g>
    <g>
      <path class="st3" d="M1493.3,1274.7c-.6-.3-1.4-.3-2.1-.3-21-.2-41.1,7.6-60.7,15.3,16.5-11.7,36.3-19,50.1-33.7,1.5-1.6,3-3.4,3.7-5.5,1.5-4.2-3.1-7.6-6.9-7.9-3.1-.3-6.2.8-9.1,1.9-17.4,6.4-34.6,13.4-51.5,20.9-2.3,1-7.7,4-6.8-.9.4-2.4,3.5-5.2,5-6.9,3.3-3.8,7.4-7.2,10.1-11.5,4.1-6.3,6.6-14.2,4.4-21.4-.4-1.3-1-2.7-2.2-3.5-2.5-1.8-5.9-.3-8.6,1.2-13.1,7.5-25.9,15.4-38.5,23.8-5.4,3.5-10.3,7.7-16.4,9.5-6.6,2-13.2,5-19.5,7.7-12.3,4.9-26.2,6.6-36.2,16.1-7.3,6.9-10.4,17.4-10.2,27.4.4,18.6,11.5,36.7,27.2,46.6,4.7,3,10.5,3.6,16.1,4,1.2,0,2.4.2,3.6.2,32.7,1.9,63.5-3.7,95.4-10.5,14.8-3.2,30.1-6.6,42.2-15.8,4-3,7.7-7.7,4.5-12.8-2.3-3.7-6-3.1-9.9-3-6.7,0-13.4.2-20.1.5-5.2.2-13.5-1-18.3.9,16.6-6.3,33.3-12.9,47.7-23.2,2.8-2,5.6-4.2,7.4-7.1,1.9-2.9,2.7-6.6,1.4-9.8-.4-.9-1-1.9-1.9-2.3Z"/>
      <g class="st12">
        <path class="st13" d="M1327.8,1268.4c-16.2,7.7-29.2,27.9-28.8,46,.4,18.9,13.1,46,35.9,42.8l35.9-1.5c9,0,8.9-21.2,9.3-28.4.9-16.2-1.1-32.8-5.4-48.2-6.9-25.5-27-20.1-47-10.7Z"/>
      </g>
      <path class="st5" d="M1340.5,1342.7c1.2-26.2.2-52.5-.8-78.7,0-1.6-.2-3.4-1.3-4.7-1.1-1.2-2.7-1.5-4.3-1.8-7.8-1.5-16.1-2.9-23.6-.2-12.6,4.6-18.5,19-20.6,32.3-3.1,19.5-1,39.8,5.9,58.4,3.8,10.4,4.9,14.5,16,16.4,7.3,1.3,16.2,4.1,23.6,1.4,1.4-.5,2.5-1.3,3.3-2.2,4.3-4.8,1.5-14.2,1.8-20.8Z"/>
      <path class="st23" d="M1297.5,1229.7c-69.8-15.5-131.5-63.9-163.4-127.9-38.3-77.1-32.8-167.4-40.8-253.1-.9-9.9-3-20.6-6.1-31.2-17-58.7-65.5-118.1-129.7-69.3-38.3,29.1-57.5,86-66,131.4-18.9,101.6,6.6,208.7,59.9,296.1,55.8,91.3,145.7,161.3,247.9,192.9,23.3,7,87.9,28.8,109.2,10.2,18.1-15.8,15.5-87.1,18.8-110.4,1.2-8.4,2.2-17.6-2.2-24.8-5.6-9-17.3-11.5-27.7-13.8Z"/>
      <path class="st23" d="M1283.4,1233.8c-69.8-15.5-131.5-63.9-163.4-127.9-38.3-77.1-32.8-167.4-40.8-253.1-.9-9.9-3-20.6-6.1-31.2-17-58.7-65.5-118.1-129.7-69.3-38.3,29.1-57.5,86-66,131.4-18.9,101.6,6.6,208.7,59.9,296.1,55.8,91.3,145.7,161.3,247.9,192.9,23.3,7,87.9,28.8,109.2,10.2,18.1-15.8,15.5-87.1,18.8-110.4,1.2-8.4,2.2-17.6-2.2-24.8-5.6-9-17.3-11.5-27.7-13.8Z"/>
      <path class="st25" d="M1287.6,1229.7c-69.8-15.5-131.5-63.9-163.4-127.9-38.3-77.1-32.8-167.4-40.8-253.1-.9-9.9-3-20.6-6.1-31.2-17-58.7-65.5-118.1-129.7-69.3-38.3,29.1-57.5,86-66,131.4-18.9,101.6,6.6,208.7,59.9,296.1,55.8,91.3,145.7,161.3,247.9,192.9,23.3,7,87.9,28.8,109.2,10.2,18.1-15.8,15.5-87.1,18.8-110.4,1.2-8.4,2.2-17.6-2.2-24.8-5.6-9-17.3-11.5-27.7-13.8Z"/>
      <path class="st23" d="M1308.7,1330.5c-9.2,2.2-18.8,3.2-28.7,3.2-54.9,0-116.3-30.3-143-45.1-75.8-42-135.9-115.2-169.4-206.2-15.9-43.1-25.3-88.4-27.9-134.7-2.7-46.7,1.6-92.1,12.9-135.1,7.2-27.4,17.9-53.9,31.8-78.6.7-1.2.3-2.7-1-3.4-1.2-.7-2.7-.3-3.4,1-14.1,25.1-25,51.9-32.3,79.8-11.4,43.5-15.7,89.5-13,136.7,2.7,46.7,12.2,92.5,28.2,136.1,16.5,44.7,39.1,85.1,67.4,120.1,29.8,36.9,64.9,66.8,104.4,88.7,27.1,15,89.3,45.7,145.5,45.7s20.2-1,29.7-3.3c1.3-.3,2.2-1.7,1.8-3-.3-1.3-1.7-2.2-3-1.8Z"/>
      <path class="st23" d="M1137.1,1119.5c-1.4,0-2.5,1.1-2.5,2.5-.2,15.4-11.8,32.3-20.3,44.7l-.5.7c-1.2,1.8-3.1,4-5.2,6.3-2.2,2.5-4.6,5.2-6.6,8,.5-20.8,2.2-39.9,9.3-58.3l1-2.6c3.8-9.8,7.1-18.2,6.6-29.2l-.2-3.8c0-1-.7-2-1.7-2.3-25.8-8.2-53.7-11.1-80.6-8.2-1.4.1-2.4,1.4-2.2,2.8.1,1.4,1.4,2.4,2.8,2.2,25.7-2.7,52.2-.1,76.9,7.5v2.1c.5,10-2.6,18-6.2,27.2l-1,2.6c-8.8,22.7-9.6,46.2-9.8,72.4,0,1.4,1.1,2.5,2.5,2.5h0c1.4,0,2.5-1.1,2.5-2.5,0-5.1,5.8-11.7,10.5-17,2.1-2.4,4.1-4.7,5.5-6.7l.5-.7c8.9-12.9,21-30.6,21.2-47.4,0-1.4-1.1-2.5-2.5-2.5Z"/>
    </g>
    <g>
      <path class="st24" d="M1974.2,2085.7c-.6-17-13.1-30.4-28-29.8l-74.9,3.2c-14.8.6-26.5,15.1-25.9,32.1l4.1,124.9c.6,17,13.1,30.4,28,29.8l74.9-3.2c14.8-.6,26.5-15.1,25.9-32.1l-4.1-124.9Z"/>
      <g>
        <path class="st1" d="M3060.6,2103.1c-28.3-12.6-57.1-24.1-86.3-34.6-32.6-11.8-65.5-20.7-100.4-17.7-32.3,31.8-50.9,80.1-44.5,125.4,1.6,11.2,4.7,22.7,11.9,31.3,2.9,3.5,6.4,6.4,9.9,9.3,8.6,7.1,22.6,16.6,31.2,23.7,3.4,2.8,20.1-1,24.4-1.6,8.3-1.1,16.5-2.8,24.6-4.9,26.8-7,52.2-18.8,77.8-29.4,27.7-11.5,55.5-23.1,83.2-34.6,10.8-4.5,16.2-10.5,20.3-21.4,3.3-23.2-36.6-38.6-52-45.5Z"/>
        <path class="st14" d="M2899.9,2050.2l-947.6,6c-5.2,0-9.4,4.4-9.4,9.7v172.6c0,5.3,4.1,9.6,9.3,9.6l947.6-6c5.2,0,9.4-4.4,9.4-9.7v-172.6c0-5.3-4.1-9.6-9.3-9.6Z"/>
        <path class="st26" d="M2899.9,2050.2l-947.6,4.6c-5.2,0-9.4,2.3-9.4,5l-.3,88.7c0,2.7,4.2,4.9,9.4,4.9l947.6-4.6c5.2,0,9.4-2.3,9.4-5l.3-88.7c0-2.7-4.2-4.9-9.4-4.9Z"/>
        <path class="st9" d="M3090,2117.7c-5.9-3.9-12.2-7.4-18.6-10.3-1.4-.6-2.9-1.3-4.3-1.8l.9,75.9c7-2.9,13.9-6,20.8-9.3,10.5-5.1,22-10.4,23.9-23.5,2.1-14.8-12.2-24-22.6-30.9Z"/>
      </g>
    </g>
  </g>
</svg>